<?xml version="1.0" encoding="UTF-8"?>
<svg width="1191px" height="842px" viewBox="0 0 1191 842" version="1.1" xmlns="http://www.w3.org/2000/svg" xmlns:xlink="http://www.w3.org/1999/xlink">
    <!-- Generator: Sketch 64 (93537) - https://sketch.com -->
    <title>A5</title>
    <desc>Created with Sketch.</desc>
    <defs>
        <path d="M78,6 C95.1128273,25.3562965 111.388695,35.8232906 126.827603,37.4009825 C142.26651,38.9786743 159.726752,32.3370753 179.208329,17.4761854" id="path-1"></path>
        <path d="M126.707702,80.7368442 C142.928396,80.6005385 155.781461,85.1673314 165.266896,94.4372229 C174.752332,103.707114 180.213342,117.038233 181.649927,134.43058" id="path-2"></path>
        <linearGradient x1="24.410469%" y1="52.2443044%" x2="50%" y2="53.1471998%" id="linearGradient-3">
            <stop stop-color="#DDCC77" offset="0%"></stop>
            <stop stop-color="#CC6777" offset="100%"></stop>
        </linearGradient>
    </defs>
    <g id="A5" stroke="none" stroke-width="1" fill="none" fill-rule="evenodd">
        <g id="inflammation" transform="translate(687.000000, 490.000000)">
            <rect id="Rectangle" stroke="#CC6777" stroke-width="2" stroke-linejoin="round" x="231" y="-1" width="83" height="52"></rect>
            <text id="Myelo-peroxidase" font-family="ArialMT, Arial" font-size="15" font-weight="normal" fill="#000000">
                <tspan x="249.996338" y="22">Myelo-</tspan>
                <tspan x="235.809326" y="39">peroxidase</tspan>
            </text>
            <path id="Line" d="M314.448485,24.6448973 C314.676563,24.061986 315.333999,23.774337 315.916911,24.0024151 L315.916911,24.0024151 L333.338848,30.8191698 C333.502702,30.8832817 333.649379,30.9846626 333.767263,31.1152838 C334.186635,31.579969 334.149901,32.2966389 333.685216,32.7160109 L333.685216,32.7160109 L328.522218,37.3759326 C336.52346,47.4532929 340.540109,55.7969745 340.499698,62.5090307 C340.459193,69.2367856 336.321894,77.6036166 328.15772,87.7148875 L333.286245,92.409425 C333.748038,92.8319792 333.779848,93.5488846 333.357293,94.0106779 C333.238515,94.1404863 333.091145,94.2408572 332.926854,94.303842 L332.926854,94.303842 L315.458502,101.000758 C314.874037,101.224827 314.218592,100.932668 313.994524,100.348204 C313.90674,100.119227 313.89559,99.8679541 313.96275,99.6321018 L313.96275,99.6321018 L319.086228,81.63927 C319.257652,81.0372575 319.884646,80.6881963 320.486659,80.85962 C320.655882,80.9078066 320.811562,80.9947309 320.941371,81.1135093 L320.941371,81.1135093 L325.939979,85.6858011 C333.634057,76.125609 337.46442,68.3594977 337.499752,62.4909693 C337.534963,56.6425601 333.822617,48.909311 326.291578,39.3914003 L321.263037,43.9268586 C321.132416,44.0447424 320.976142,44.1305953 320.806592,44.1776183 C320.203416,44.3449025 319.578835,43.9915425 319.411551,43.3883666 L319.411551,43.3883666 L314.411792,25.3607642 C314.346255,25.1244562 314.35913,24.8732661 314.448485,24.6448973 Z" fill="#CC6777" fill-rule="nonzero"></path>
            <rect id="Rectangle" stroke="#CC6777" stroke-width="2" stroke-linejoin="round" x="230" y="74" width="83" height="52"></rect>
            <text id="Plasma-calprotectin" font-family="ArialMT, Arial" font-size="15" font-weight="normal" fill="#000000">
                <tspan x="246.491455" y="97">Plasma </tspan>
                <tspan x="233.146729" y="114">calprotectin</tspan>
            </text>
            <path id="Line" d="M225.456715,77.7780554 C225.544506,77.9502691 225.495596,78.1562241 225.350146,78.2722368 L225.282016,78.3160893 L143.812,119.846 L145.231026,122.629487 C145.337425,122.838202 145.275518,123.08846 145.095537,123.225565 L145.022607,123.271373 C144.956604,123.30502 144.883674,123.322837 144.809592,123.323414 L144.809592,123.323414 L136.932747,123.384791 C136.6692,123.386845 136.453888,123.174862 136.451834,122.911315 C136.45103,122.808065 136.483735,122.707338 136.545042,122.624255 L136.545042,122.624255 L141.222047,116.285953 C141.378533,116.073883 141.677306,116.028823 141.889376,116.185309 C141.948988,116.229296 141.99754,116.286559 142.031186,116.352562 L142.031186,116.352562 L143.449,119.134 L224.918681,77.6033569 C225.115497,77.5030246 225.356382,77.5812398 225.456715,77.7780554 Z" fill="#CC6777" fill-rule="nonzero"></path>
            <path id="Line" d="M313.972614,99.8429323 C314.074175,99.5643693 314.382326,99.420881 314.660889,99.5224421 L314.660889,99.5224421 L322.986523,102.55788 C323.064826,102.586428 323.135407,102.632816 323.192676,102.693368 C323.396411,102.908784 323.386941,103.248573 323.171525,103.452308 L323.171525,103.452308 L320.647,105.839 L320.784245,105.991159 C332.632586,119.132188 338.547194,129.617112 338.499716,137.50301 C338.452017,145.425612 332.354352,155.971676 320.233919,169.200075 L322.741971,171.603762 C322.956074,171.808876 322.963361,172.148719 322.758247,172.362823 C322.700591,172.423006 322.629713,172.468939 322.551229,172.496984 L322.551229,172.496984 L314.206273,175.478892 C313.927063,175.578663 313.61984,175.433198 313.52007,175.153989 C313.480982,175.044602 313.478428,174.925489 313.51279,174.814527 L313.51279,174.814527 L316.134237,166.349417 C316.221947,166.066187 316.522653,165.907687 316.805882,165.995397 C316.885497,166.020052 316.958278,166.062904 317.018462,166.120561 L317.018462,166.120561 L319.51,168.508 L319.636792,168.371343 C331.508765,155.384137 337.45412,145.073295 337.499734,137.49699 C337.545458,129.902458 331.695407,119.559966 319.920944,106.527163 L317.412921,108.89864 C317.352369,108.955909 317.279314,108.998294 317.199542,109.022437 C316.915755,109.108326 316.616074,108.947898 316.530185,108.664111 L316.530185,108.664111 L313.963155,100.18234 C313.929506,100.07116 313.932825,99.9520657 313.972614,99.8429323 Z" fill="#CC6777" fill-rule="nonzero"></path>
            <text id="Elastase" font-family="ArialMT, Arial" font-size="15" font-weight="normal" fill="#000000">
                <tspan x="242.734131" y="181">Elastase</tspan>
            </text>
            <rect id="Rectangle" stroke="#CC6777" stroke-width="2" stroke-linejoin="round" x="230" y="149" width="83" height="52"></rect>
            <rect id="Rectangle" stroke="#CC6777" stroke-width="2" stroke-linejoin="round" x="103" y="200" width="83" height="52"></rect>
            <text id="LBP" font-family="ArialMT, Arial" font-size="15" font-weight="normal" fill="#000000">
                <tspan x="133.323975" y="232">LBP</tspan>
            </text>
            <path id="Line" d="M99.7507333,140.965546 C99.987131,140.900333 100.238303,140.913553 100.466549,141.003221 L100.466549,141.003221 L117.879117,147.843872 C118.461715,148.07275 118.748462,148.730581 118.519584,149.313179 C118.455247,149.476945 118.353665,149.623482 118.222882,149.741187 L118.222882,149.741187 L113.119,154.334 L147.942472,193.027143 C148.496661,193.642908 148.446743,194.591343 147.830978,195.145531 C147.253699,195.665083 146.384033,195.653682 145.820943,195.142853 L145.71259,195.034037 L110.889,156.341 L105.785334,160.93498 C105.353307,161.323805 104.704547,161.319057 104.278809,160.943882 L104.184721,160.850738 C104.067016,160.719955 103.981378,160.563563 103.934588,160.393949 L103.934588,160.393949 L98.9595684,142.359503 C98.7931119,141.756099 99.1473285,141.132003 99.7507333,140.965546 Z" fill="#CC6777" fill-rule="nonzero"></path>
            <rect id="Rectangle" stroke="#CC6777" stroke-width="2" stroke-linejoin="round" x="-1" y="200" width="83" height="52"></rect>
            <text id="sCD14" font-family="ArialMT, Arial" font-size="15" font-weight="normal" fill="#000000">
                <tspan x="17.5751953" y="232">sCD14</tspan>
            </text>
            <path id="Line" d="M58.8676473,132.892092 C59.1196352,132.319111 59.7884047,132.058894 60.3613857,132.310882 C60.5858642,132.409604 60.7722676,132.578471 60.8926172,132.792136 L60.8926172,132.792136 L70.073914,149.092314 C70.3811061,149.637693 70.1880175,150.328838 69.6426386,150.636031 C69.4893347,150.722381 69.3180315,150.771853 69.1422952,150.780527 L69.1422952,150.780527 L62.284,151.119 L64.8506924,203.111304 C64.8915352,203.938724 64.2538887,204.64259 63.426469,204.683432 C62.6477211,204.721873 61.9784187,204.159298 61.8683209,203.403155 L61.8543406,203.259209 L59.287,151.266 L52.4296337,151.605493 C51.8461302,151.634296 51.3439493,151.216521 51.2544948,150.652393 L51.241764,150.529378 C51.2330893,150.353641 51.2654498,150.178299 51.3362826,150.017236 L51.3362826,150.017236 Z" fill="#CC6777" fill-rule="nonzero"></path>
            <path id="Line" d="M85.2915581,296.791967 L85.4147146,296.803249 C85.5888145,296.828699 85.7545979,296.894335 85.8989358,296.994958 L85.8989358,296.994958 L91.476383,300.88343 C91.6318445,300.637447 91.7859682,300.392273 91.9387543,300.147908 C92.3779392,299.445478 93.303401,299.232075 94.0058312,299.67126 C94.7082613,300.110445 94.9216638,301.035907 94.4824789,301.738337 C94.3034929,302.024606 94.122726,302.311929 93.9401782,302.600304 L99.6255885,306.564317 C100.139071,306.922285 100.265141,307.628735 99.9071729,308.142218 C99.8065496,308.286556 99.6737025,308.405483 99.5191524,308.489583 L99.5191524,308.489583 L83.086467,317.431556 C82.5366546,317.730741 81.8484065,317.527567 81.5492218,316.977755 C81.4320093,316.762353 81.3878224,316.514745 81.4232934,316.272096 L81.4232934,316.272096 L84.1293261,297.760764 C84.2198658,297.141403 84.7953538,296.712709 85.4147146,296.803249 Z M99.4118064,290.078436 C100.145429,290.463259 100.428188,291.369938 100.043365,292.103561 C98.9953286,294.101528 97.8436271,296.16039 96.5882749,298.280303 C96.1661629,298.993123 95.2461184,299.228789 94.533298,298.806677 C93.8204775,298.384565 93.5848118,297.46452 94.0069237,296.7517 C95.2365689,294.675198 96.3631496,292.661244 97.3866807,290.709994 C97.7715037,289.976371 98.6781833,289.693613 99.4118064,290.078436 Z M103.811617,280.007575 C104.586037,280.301796 104.975315,281.1681 104.681094,281.94252 C103.884094,284.040305 102.943594,286.221187 101.859749,288.485567 C101.502082,289.232806 100.60638,289.548617 99.8591405,289.190951 C99.1119013,288.833285 98.7960899,287.937582 99.1537561,287.190343 C100.202588,284.999115 101.110175,282.894551 101.876673,280.877051 C102.170894,280.102632 103.037198,279.713354 103.811617,280.007575 Z M106.236664,269.300873 L106.38062,269.314755 C107.200516,269.433336 107.769044,270.194123 107.650463,271.014019 C107.328704,273.238727 106.785099,275.58796 106.020839,278.062591 C105.776381,278.854129 104.936542,279.297626 104.145004,279.053169 C103.353466,278.808712 102.909969,277.968872 103.154426,277.177334 C103.874237,274.84663 104.382816,272.64876 104.681356,270.584598 C104.785986,269.86116 105.390604,269.333424 106.094648,269.300724 L106.236664,269.300873 Z M107.279133,259.545733 C107.767794,262.001559 108.008744,264.318096 107.999755,266.496291 C107.99922,266.615353 107.998097,266.725778 107.996296,266.837869 C107.982985,267.666189 107.300708,268.326885 106.472388,268.313574 C105.644068,268.300263 104.983372,267.617987 104.996683,266.789667 C104.998297,266.689264 104.999302,266.590403 104.999783,266.483354 C105.007908,264.514481 104.787659,262.396966 104.336815,260.131197 C104.175144,259.318699 104.702743,258.528978 105.515242,258.367307 C106.32774,258.205635 107.117461,258.733235 107.279133,259.545733 Z M103.928244,248.780741 C104.887345,251.131122 105.677345,253.383285 106.297865,255.537822 C106.527139,256.333891 106.06766,257.165094 105.271591,257.394367 C104.475523,257.623641 103.644319,257.164162 103.415046,256.368093 C102.82516,254.319927 102.070471,252.168429 101.150603,249.91419 C100.837609,249.147166 101.205674,248.271638 101.972699,247.958645 C102.739723,247.645651 103.615251,248.013716 103.928244,248.780741 Z M99.1130249,238.710155 C100.293414,240.892172 101.35621,243.004819 102.301365,245.048325 C102.649131,245.800223 102.321517,246.691677 101.569619,247.039442 C100.817721,247.387207 99.9262672,247.059593 99.5785017,246.307695 C98.6603351,244.322542 97.6256406,242.265756 96.4743709,240.137567 C96.080202,239.408923 96.3513477,238.498703 97.0799919,238.104534 C97.8086361,237.710365 98.718856,237.981511 99.1130249,238.710155 Z M82.0037808,216.016294 C82.3064064,215.468368 82.9959148,215.269513 83.5438408,215.572139 L83.5438408,215.572139 L99.9201451,224.616954 C100.074165,224.702021 100.206264,224.82178 100.30598,224.966746 C100.660722,225.482462 100.530226,226.188108 100.014509,226.542849 L100.014509,226.542849 L94.3044024,230.472506 C95.3033064,232.07482 96.2474913,233.644628 97.136957,235.181978 C97.5518268,235.899038 97.3068535,236.816648 96.5897939,237.231518 C95.8727342,237.646387 94.9551241,237.401414 94.5402543,236.684354 C93.6888044,235.212711 92.7854738,233.709464 91.8302623,232.174656 L86.2281352,236.025967 C86.0831693,236.125683 85.9169776,236.190278 85.7427216,236.214637 C85.1228054,236.301292 84.5500162,235.868998 84.4633611,235.249082 L84.4633611,235.249082 L81.873431,216.721149 C81.8394819,216.478283 81.8852203,216.230957 82.0037808,216.016294 Z" fill="#CC6777" fill-rule="nonzero"></path>
        </g>
        <path id="Line" d="M388.5232,274.147666 L388.625906,274.220101 L473.732843,342.522484 L535.314,391.944 L538.54653,387.916291 C538.607391,387.840457 538.680866,387.776032 538.763497,387.725715 L538.849051,387.680202 C539.268121,387.487573 539.764,387.67114 539.956629,388.09021 L539.956629,388.09021 L545.713875,400.615284 C545.789342,400.779464 545.809523,400.963692 545.771388,401.140317 C545.674049,401.59115 545.229668,401.877713 544.778835,401.780374 L544.778835,401.780374 L531.304427,398.871127 C531.1777,398.843766 531.059083,398.787274 530.957972,398.706127 C530.598266,398.417446 530.540689,397.891824 530.82937,397.532118 L530.82937,397.532118 L534.062,393.504 L472.481032,344.082282 L387.374094,275.779899 C386.943368,275.43422 386.874423,274.80482 387.220101,274.374094 C387.539189,273.976501 388.100028,273.887171 388.5232,274.147666 Z" fill="#000000" fill-rule="nonzero"></path>
        <rect id="Rectangle" stroke="#999999" stroke-width="2" fill="#FFFFFF" stroke-linejoin="round" transform="translate(451.500000, 346.000000) rotate(140.000000) translate(-451.500000, -346.000000) " x="423" y="328" width="57" height="36"></rect>
        <text id="Sex" transform="translate(451.500000, 346.500000) rotate(-40.000000) translate(-451.500000, -346.500000) " font-family="Arial-BoldMT, Arial" font-size="15" font-weight="bold" fill="#000000">
            <tspan x="438.155273" y="352">Sex</tspan>
        </text>
        <circle id="Oval" fill="#CC6777" cx="777" cy="588" r="42"></circle>
        <text id="Inflammation" font-family="Arial-BoldMT, Arial" font-size="14" font-weight="bold" fill="#000000">
            <tspan x="735.441406" y="595">Inflammation</tspan>
        </text>
        <circle id="Oval" fill="#88CCEE" cx="378" cy="591" r="42"></circle>
        <text id="Gut-microbiota" font-family="Arial-BoldMT, Arial" font-size="15" font-weight="bold" fill="#000000">
            <tspan x="365.587402" y="587">Gut</tspan>
            <tspan x="340.161377" y="604">microbiota</tspan>
        </text>
        <rect id="Rectangle" stroke="#322288" stroke-width="2" stroke-linejoin="round" x="347" y="400" width="83" height="52"></rect>
        <text id="Absolute-biomass" font-family="Arial-BoldMT, Arial" font-size="15" font-weight="bold" fill="#000000">
            <tspan x="356.41626" y="425">Absolute</tspan>
            <tspan x="358.071533" y="442">biomass</tspan>
        </text>
        <path id="Line" d="M403.765144,545.457074 C404.196974,545.733703 404.344647,546.286759 404.125018,546.736699 L404.067776,546.838528 L400.291901,552.732827 C399.993993,553.197874 399.375495,553.333367 398.910447,553.035459 C398.478618,552.75883 398.330945,552.205774 398.550574,551.755835 L398.607815,551.654006 L402.383691,545.759706 C402.681599,545.294659 403.300097,545.159166 403.765144,545.457074 Z M409.698662,536.194603 C410.130492,536.471233 410.278165,537.024288 410.058536,537.474228 L410.001294,537.576057 L406.225419,543.470356 C405.927511,543.935404 405.309013,544.070897 404.843966,543.772988 C404.412136,543.496359 404.264463,542.943303 404.484092,542.493364 L404.541334,542.391535 L408.317209,536.497235 C408.615117,536.032188 409.233615,535.896695 409.698662,536.194603 Z M415.63218,526.932133 C416.06401,527.208762 416.211683,527.761818 415.992054,528.211757 L415.934812,528.313586 L412.158937,534.207886 C411.861029,534.672933 411.242531,534.808426 410.777484,534.510518 C410.345654,534.233889 410.197981,533.680833 410.41761,533.230893 L410.474852,533.129064 L414.250727,527.234765 C414.548635,526.769717 415.167133,526.634224 415.63218,526.932133 Z M421.565699,517.669662 C421.997528,517.946291 422.145201,518.499347 421.925572,518.949287 L421.868331,519.051116 L418.092455,524.945415 C417.794547,525.410463 417.176049,525.545956 416.711002,525.248047 C416.279172,524.971418 416.131499,524.418362 416.351128,523.968423 L416.40837,523.866594 L420.184245,517.972294 C420.482153,517.507247 421.100651,517.371754 421.565699,517.669662 Z M427.499217,508.407191 C427.931046,508.683821 428.07872,509.236876 427.85909,509.686816 L427.801849,509.788645 L424.025974,515.682944 C423.728065,516.147992 423.109567,516.283485 422.64452,515.985577 C422.21269,515.708947 422.065017,515.155892 422.284646,514.705952 L422.341888,514.604123 L426.117763,508.709824 C426.415671,508.244776 427.034169,508.109283 427.499217,508.407191 Z M433.432735,499.144721 C433.864565,499.42135 434.012238,499.974406 433.792609,500.424345 L433.735367,500.526174 L429.959492,506.420474 C429.661583,506.885521 429.043086,507.021014 428.578038,506.723106 C428.146208,506.446477 427.998535,505.893421 428.218164,505.443481 L428.275406,505.341652 L432.051281,499.447353 C432.34919,498.982305 432.967687,498.846813 433.432735,499.144721 Z M439.366253,489.88225 C439.798083,490.158879 439.945756,490.711935 439.726127,491.161875 L439.668885,491.263704 L435.89301,497.158003 C435.595102,497.623051 434.976604,497.758544 434.511556,497.460635 C434.079727,497.184006 433.932053,496.63095 434.151683,496.181011 L434.208924,496.079182 L437.984799,490.184882 C438.282708,489.719835 438.901206,489.584342 439.366253,489.88225 Z M445.299771,480.61978 C445.731601,480.896409 445.879274,481.449465 445.659645,481.899404 L445.602403,482.001233 L441.826528,487.895533 C441.52862,488.36058 440.910122,488.496073 440.445074,488.198165 C440.013245,487.921535 439.865572,487.36848 440.085201,486.91854 L440.142442,486.816711 L443.918318,480.922412 C444.216226,480.457364 444.834724,480.321871 445.299771,480.61978 Z M451.233289,471.357309 C451.665119,471.633938 451.812792,472.186994 451.593163,472.636933 L451.535921,472.738762 L447.760046,478.633062 C447.462138,479.098109 446.84364,479.233602 446.378593,478.935694 C445.946763,478.659065 445.79909,478.106009 446.018719,477.656069 L446.075961,477.55424 L449.851836,471.659941 C450.149744,471.194894 450.768242,471.059401 451.233289,471.357309 Z M457.166807,462.094838 C457.598637,462.371467 457.74631,462.924523 457.526681,463.374463 L457.46944,463.476292 L453.693564,469.370591 C453.395656,469.835639 452.777158,469.971132 452.312111,469.673223 C451.880281,469.396594 451.732608,468.843538 451.952237,468.393599 L452.009479,468.29177 L455.785354,462.39747 C456.083262,461.932423 456.70176,461.79693 457.166807,462.094838 Z M463.100326,452.832368 C463.532155,453.108997 463.679828,453.662053 463.460199,454.111992 L463.402958,454.213821 L459.627082,460.108121 C459.329174,460.573168 458.710676,460.708661 458.245629,460.410753 C457.813799,460.134124 457.666126,459.581068 457.885755,459.131128 L457.942997,459.029299 L461.718872,453.135 C462.01678,452.669952 462.635278,452.534459 463.100326,452.832368 Z M469.033844,443.569897 C469.465673,443.846526 469.613347,444.399582 469.393717,444.849522 L469.336476,444.951351 L465.560601,450.84565 C465.262692,451.310697 464.644194,451.44619 464.179147,451.148282 C463.747317,450.871653 463.599644,450.318597 463.819273,449.868658 L463.876515,449.766829 L467.65239,443.872529 C467.950299,443.407482 468.568796,443.271989 469.033844,443.569897 Z M474.967362,434.307426 C475.399192,434.584056 475.546865,435.137111 475.327236,435.587051 L475.269994,435.68888 L471.494119,441.583179 C471.19621,442.048227 470.577713,442.18372 470.112665,441.885811 C469.680836,441.609182 469.533162,441.056126 469.752792,440.606187 L469.810033,440.504358 L473.585908,434.610058 C473.883817,434.145011 474.502315,434.009518 474.967362,434.307426 Z M480.90088,425.044956 C481.33271,425.321585 481.480383,425.874641 481.260754,426.32458 L481.203512,426.426409 L477.427637,432.320709 C477.129729,432.785756 476.511231,432.921249 476.046183,432.623341 C475.614354,432.346712 475.466681,431.793656 475.68631,431.343716 L475.743551,431.241887 L479.519427,425.347588 C479.817335,424.88254 480.435833,424.747047 480.90088,425.044956 Z M486.834398,415.782485 C487.266228,416.059114 487.413901,416.61217 487.194272,417.06211 L487.13703,417.163939 L483.361155,423.058238 C483.063247,423.523286 482.444749,423.658778 481.979702,423.36087 C481.547872,423.084241 481.400199,422.531185 481.619828,422.081246 L481.67707,421.979417 L485.452945,416.085117 C485.750853,415.62007 486.369351,415.484577 486.834398,415.782485 Z M492.767916,406.520014 C493.199746,406.796644 493.347419,407.349699 493.12779,407.799639 L493.070548,407.901468 L489.294673,413.795767 C488.996765,414.260815 488.378267,414.396308 487.91322,414.0984 C487.48139,413.82177 487.333717,413.268715 487.553346,412.818775 L487.610588,412.716946 L491.386463,406.822647 C491.684371,406.357599 492.302869,406.222106 492.767916,406.520014 Z M498.701435,397.257544 C499.133264,397.534173 499.280937,398.087229 499.061308,398.537168 L499.004067,398.638997 L495.228191,404.533297 C494.930283,404.998344 494.311785,405.133837 493.846738,404.835929 C493.414908,404.5593 493.267235,404.006244 493.486864,403.556304 L493.544106,403.454475 L497.319981,397.560176 C497.617889,397.095128 498.236387,396.959636 498.701435,397.257544 Z M504.634953,387.995073 C505.066782,388.271702 505.214456,388.824758 504.994826,389.274698 L504.937585,389.376527 L501.16171,395.270826 C500.863801,395.735874 500.245303,395.871367 499.780256,395.573458 C499.348426,395.296829 499.200753,394.743773 499.420382,394.293834 L499.477624,394.192005 L503.253499,388.297705 C503.551408,387.832658 504.169905,387.697165 504.634953,387.995073 Z M510.568471,378.732603 C511.000301,379.009232 511.147974,379.562288 510.928345,380.012227 L510.871103,380.114056 L507.095228,386.008356 C506.797319,386.473403 506.178822,386.608896 505.713774,386.310988 C505.281944,386.034358 505.134271,385.481303 505.3539,385.031363 L505.411142,384.929534 L509.187017,379.035235 C509.484926,378.570187 510.103423,378.434694 510.568471,378.732603 Z M516.501989,369.470132 C516.933819,369.746761 517.081492,370.299817 516.861863,370.749756 L516.804621,370.851585 L513.028746,376.745885 C512.730838,377.210932 512.11234,377.346425 511.647292,377.048517 C511.215463,376.771888 511.06779,376.218832 511.287419,375.768892 L511.34466,375.667063 L515.120535,369.772764 C515.418444,369.307717 516.036942,369.172224 516.501989,369.470132 Z M522.435507,360.207661 C522.867337,360.48429 523.01501,361.037346 522.795381,361.487286 L522.738139,361.589115 L518.962264,367.483414 C518.664356,367.948462 518.045858,368.083955 517.58081,367.786046 C517.148981,367.509417 517.001308,366.956361 517.220937,366.506422 L517.278178,366.404593 L521.054054,360.510293 C521.351962,360.045246 521.97046,359.909753 522.435507,360.207661 Z M528.369025,350.945191 C528.800855,351.22182 528.948528,351.774876 528.728899,352.224815 L528.671657,352.326644 L524.895782,358.220944 C524.597874,358.685991 523.979376,358.821484 523.514329,358.523576 C523.082499,358.246947 522.934826,357.693891 523.154455,357.243951 L523.211697,357.142122 L526.987572,351.247823 C527.28548,350.782775 527.903978,350.647282 528.369025,350.945191 Z M534.302543,341.68272 C534.734373,341.959349 534.882046,342.512405 534.662417,342.962345 L534.605176,343.064174 L530.8293,348.958473 C530.531392,349.42352 529.912894,349.559013 529.447847,349.261105 C529.016017,348.984476 528.868344,348.43142 529.087973,347.981481 L529.145215,347.879652 L532.92109,341.985352 C533.218998,341.520305 533.837496,341.384812 534.302543,341.68272 Z M540.236062,332.420249 C540.667891,332.696879 540.815564,333.249934 540.595935,333.699874 L540.538694,333.801703 L536.762818,339.696002 C536.46491,340.16105 535.846412,340.296543 535.381365,339.998634 C534.949535,339.722005 534.801862,339.168949 535.021491,338.71901 L535.078733,338.617181 L538.854608,332.722881 C539.152516,332.257834 539.771014,332.122341 540.236062,332.420249 Z M546.16958,323.157779 C546.60141,323.434408 546.749083,323.987464 546.529453,324.437403 L546.472212,324.539232 L542.696337,330.433532 C542.398428,330.898579 541.779931,331.034072 541.314883,330.736164 C540.883053,330.459535 540.73538,329.906479 540.955009,329.456539 L541.012251,329.35471 L544.788126,323.460411 C545.086035,322.995363 545.704532,322.85987 546.16958,323.157779 Z M552.103098,313.895308 C552.534928,314.171937 552.682601,314.724993 552.462972,315.174933 L552.40573,315.276762 L548.629855,321.171061 C548.331946,321.636109 547.713449,321.771601 547.248401,321.473693 C546.816572,321.197064 546.668898,320.644008 546.888528,320.194069 L546.945769,320.09224 L550.721644,314.19794 C551.019553,313.732893 551.638051,313.5974 552.103098,313.895308 Z M558.036616,304.632837 C558.468446,304.909467 558.616119,305.462522 558.39649,305.912462 L558.339248,306.014291 L554.563373,311.90859 C554.265465,312.373638 553.646967,312.509131 553.181919,312.211223 C552.75009,311.934593 552.602417,311.381538 552.822046,310.931598 L552.879287,310.829769 L556.655163,304.93547 C556.953071,304.470422 557.571569,304.334929 558.036616,304.632837 Z M567.08067,289.129769 C567.476876,288.893664 567.989466,289.023451 568.225572,289.419657 C568.318072,289.57488 568.357731,289.755917 568.338597,289.935595 L568.338597,289.935595 L566.878906,303.64299 C566.830066,304.101618 566.418683,304.433818 565.960054,304.384979 C565.831136,304.371251 565.707184,304.327695 565.598015,304.257762 L565.598015,304.257762 L561.249,301.471 L560.496891,302.64612 C560.198983,303.111167 559.580485,303.24666 559.115438,302.948752 C558.683608,302.672123 558.535935,302.119067 558.755564,301.669127 L558.812806,301.567298 L559.564,300.393 L555.215976,297.607051 C554.859972,297.378995 554.735225,296.925973 554.908537,296.55291 L554.963243,296.453377 C555.033177,296.344209 555.127567,296.252821 555.238939,296.186453 L555.238939,296.186453 Z" fill="#000000" fill-rule="nonzero"></path>
        <path id="Line" d="M607.204308,280.172595 C607.384993,280.174411 607.560215,280.234781 607.703673,280.344645 L607.703673,280.344645 L618.647927,288.725974 C619.014105,289.0064 619.08362,289.530577 618.803194,289.896755 C618.724367,289.999686 618.622658,290.082851 618.506121,290.139663 L618.506121,290.139663 L613.863,292.402 L741.68949,554.608478 C741.931503,555.104914 741.725253,555.703544 741.228818,555.945558 C740.767842,556.170284 740.218749,556.008498 739.94889,555.586766 L739.891739,555.484886 L612.065,293.279 L607.423356,295.542534 C607.043323,295.727801 606.591577,295.598508 606.36325,295.25634 L606.30674,295.15782 C606.249928,295.041283 606.221029,294.913119 606.222332,294.783478 L606.222332,294.783478 L606.360843,280.999277 C606.365477,280.538079 606.743109,280.167961 607.204308,280.172595 Z" fill="#000000" fill-rule="nonzero"></path>
        <path id="Line" d="M578.688361,582.852015 C615.236426,584.592399 663.265869,593.881736 722.792192,610.716246 L724.224535,605.749209 C724.260438,605.624632 724.324852,605.510125 724.412676,605.414755 C724.725113,605.075479 725.253431,605.05372 725.592708,605.366157 L725.592708,605.366157 L735.732944,614.704195 C735.865864,614.8266 735.955497,614.988813 735.98839,615.166488 C736.07235,615.620003 735.772766,616.055713 735.31925,616.139672 L735.31925,616.139672 L721.764677,618.649038 C721.637196,618.672639 721.50597,618.666235 721.381393,618.630333 C720.938209,618.50261 720.682477,618.039799 720.810199,617.596615 L720.810199,617.596615 L722.239,612.638 L721.440417,612.41266 C662.421458,595.760307 614.800633,586.573913 578.593231,584.849751 C542.242999,583.118788 493.959792,587.793055 433.75829,598.877815 L434.717657,603.947587 C434.803499,604.400749 434.505727,604.837699 434.052565,604.923541 C433.925182,604.947671 433.793931,604.941812 433.669206,604.906427 L433.669206,604.906427 L420.407666,601.144123 C419.963955,601.018242 419.706303,600.556497 419.832184,600.112786 C419.881501,599.938952 419.985869,599.785803 420.129623,599.676326 L420.129623,599.676326 L431.09639,591.324476 C431.463321,591.045036 431.987309,591.115962 432.266749,591.482893 C432.345298,591.586036 432.398755,591.706051 432.422885,591.833433 L432.422885,591.833433 L433.384,596.913 L434.143582,596.773469 C494.135752,585.762049 542.312512,581.119832 578.688361,582.852015 Z" fill="#000000" fill-rule="nonzero"></path>
        <g id="meta1" transform="translate(287.000000, 60.000000)">
            <rect id="Rectangle" stroke="#DDCC77" stroke-width="2" stroke-linejoin="round" x="455" y="31" width="85" height="52"></rect>
            <text id="Triglycerides" font-family="ArialMT, Arial" font-size="15" font-weight="normal" fill="#000000">
                <tspan x="455.768555" y="63">Triglycerides</tspan>
            </text>
            <path id="Line" d="M497.648712,77.3819349 C497.994341,78.0808387 497.745133,78.9189025 497.09552,79.3212427 L496.969073,79.391435 L340.949,156.547 L343.993082,162.703098 C344.252056,163.226776 344.069043,163.853855 343.587309,164.160733 L343.47956,164.221438 C343.321842,164.299434 343.14813,164.339639 342.972181,164.338867 L342.972181,164.338867 L324.264287,164.256826 C323.63835,164.254081 323.133152,163.744433 323.135897,163.118496 C323.136973,162.873271 323.217556,162.635009 323.365551,162.439474 L323.365551,162.439474 L334.655921,147.522383 C335.033679,147.02328 335.744516,146.924911 336.243619,147.30267 C336.383914,147.408856 336.497561,147.546249 336.575557,147.703967 L336.575557,147.703967 L339.619,153.859 L495.639212,76.7022957 C496.381797,76.3350647 497.281481,76.6393496 497.648712,77.3819349 Z" fill="#DDCC77" fill-rule="nonzero"></path>
            <rect id="Rectangle-4" stroke="#DDCC77" stroke-width="2" stroke-linejoin="round" x="351" y="31" width="83" height="52"></rect>
            <text id="LDL" font-family="ArialMT, Arial" font-size="15" font-weight="normal" fill="#000000">
                <tspan x="379.241455" y="63">LDL</tspan>
            </text>
            <path id="Line-2" d="M390.620844,79.5125129 C390.96112,79.8921302 390.957856,80.4600293 390.63188,80.8350919 L390.543675,80.9246195 L320.864,143.382 L324.311739,147.228857 C324.593936,147.54368 324.593208,148.013563 324.326588,148.326814 L324.247294,148.408129 C324.150754,148.494665 324.035391,148.557535 323.910343,148.59176 L323.910343,148.59176 L310.61446,152.230837 C310.1696,152.352595 309.710266,152.090669 309.588508,151.64581 C309.540807,151.471526 309.550919,151.286471 309.617329,151.118423 L309.617329,151.118423 L314.683597,138.298271 C314.853106,137.869328 315.338248,137.659016 315.76719,137.828526 C315.887764,137.876174 315.995589,137.951241 316.082124,138.047782 L316.082124,138.047782 L319.529,141.893 L389.208737,79.435344 C389.619989,79.0667112 390.252211,79.1012609 390.620844,79.5125129 Z" fill="#DDCC77" fill-rule="nonzero"></path>
            <rect id="Rectangle" stroke="#DDCC77" stroke-width="2" stroke-linejoin="round" x="247" y="31" width="83" height="52"></rect>
            <text id="IGI" font-family="ArialMT, Arial" font-size="15" font-weight="normal" fill="#000000">
                <tspan x="278.498779" y="63">IGI</tspan>
            </text>
            <path id="Line" d="M297.157121,133.745118 C297.447102,133.683287 297.732301,133.868239 297.794132,134.15822 C297.811513,134.239733 297.809676,134.324173 297.788768,134.404852 L297.788768,134.404852 L295.565709,142.983202 C295.491329,143.27022 295.198358,143.442597 294.91134,143.368217 C294.798894,143.339077 294.698932,143.274252 294.626459,143.183472 L294.626459,143.183472 L289.097615,136.258016 C288.912629,136.026301 288.950509,135.688497 289.182225,135.50351 C289.247359,135.451511 289.323705,135.415391 289.405218,135.398011 L289.405218,135.398011 Z M292.179476,127.045979 L292.206097,127.132199 L293.665851,133.978301 C293.723437,134.248373 293.551183,134.513991 293.281112,134.571577 C293.041048,134.622764 292.804503,134.49235 292.714457,134.273058 L292.687836,134.186838 L291.228082,127.340735 C291.170496,127.070664 291.34275,126.805046 291.612821,126.74746 C291.852885,126.696273 292.08943,126.826687 292.179476,127.045979 Z M289.885577,116.287818 L289.912197,116.374038 L291.371952,123.220141 C291.429537,123.490212 291.257284,123.75583 290.987212,123.813416 C290.747149,123.864603 290.510604,123.734189 290.420558,123.514897 L290.393937,123.428677 L288.934183,116.582574 C288.876597,116.312503 289.048851,116.046885 289.318922,115.989299 C289.558985,115.938112 289.79553,116.068526 289.885577,116.287818 Z M287.591677,105.529657 L287.618298,105.615877 L289.078052,112.46198 C289.135638,112.732051 288.963384,112.997669 288.693313,113.055255 C288.45325,113.106442 288.216705,112.976028 288.126659,112.756736 L288.100038,112.670516 L286.640284,105.824414 C286.582698,105.554342 286.754951,105.288724 287.025023,105.231138 C287.265086,105.179951 287.501631,105.310365 287.591677,105.529657 Z M285.297778,94.7714966 L285.324399,94.8577164 L286.784153,101.703819 C286.841739,101.97389 286.669485,102.239509 286.399414,102.297094 C286.15935,102.348282 285.922805,102.217867 285.832759,101.998575 L285.806138,101.912355 L284.346384,95.0662527 C284.288798,94.7961814 284.461052,94.5305629 284.731123,94.4729772 C284.971187,94.4217899 285.207732,94.552204 285.297778,94.7714966 Z M283.003879,84.0133357 L283.030499,84.0995555 L284.490254,90.9456579 C284.547839,91.2157291 284.375586,91.4813476 284.105514,91.5389333 C283.865451,91.5901206 283.628906,91.4597065 283.53886,91.2404139 L283.512239,91.1541942 L282.052485,84.3080918 C281.994899,84.0380205 282.167153,83.772402 282.437224,83.7148163 C282.677287,83.663629 282.913832,83.7940431 283.003879,84.0133357 Z" fill="#DDCC77" fill-rule="nonzero"></path>
            <rect id="Rectangle-3" stroke="#DDCC77" stroke-width="2" stroke-linejoin="round" x="143" y="31" width="83" height="52"></rect>
            <text id="HOMA-IR" font-family="ArialMT, Arial" font-size="15" font-weight="normal" fill="#000000">
                <tspan x="152.002441" y="63">HOMA-IR</tspan>
            </text>
            <path id="Line-2" d="M182.066144,87.1168373 L182.170242,87.1698411 L263.149,134.463 L265.754126,130.003028 C265.967342,129.637943 266.414848,129.494664 266.794725,129.65248 L266.896424,129.703046 C267.008378,129.768429 267.103571,129.858979 267.174465,129.967526 L267.174465,129.967526 L274.71236,141.508909 C274.964567,141.895066 274.855979,142.412562 274.469822,142.664768 C274.318536,142.763576 274.139283,142.81065 273.95897,142.798924 L273.95897,142.798924 L260.203127,141.904411 C259.742878,141.874482 259.394034,141.477114 259.423963,141.016864 C259.432376,140.88749 259.470795,140.761851 259.536178,140.649898 L259.536178,140.649898 L262.141,136.19 L181.161619,88.8968851 C180.684709,88.6183618 180.523885,88.005962 180.802408,87.529052 C181.061037,87.0862069 181.607549,86.9159053 182.066144,87.1168373 Z" fill="#DDCC77" fill-rule="nonzero"></path>
            <path id="Line-2" d="M136.430671,37.3738915 C136.493997,38.1998947 135.875725,38.9208385 135.049722,38.9841645 C132.596804,39.172219 130.186779,39.176071 127.820234,38.9953898 C126.994211,38.9323245 126.375711,38.2115759 126.438776,37.3855527 C126.501842,36.5595295 127.22259,35.94103 128.048614,36.0040953 C130.261345,36.1730331 132.518411,36.1694256 134.820398,35.9929423 C135.646402,35.9296163 136.367345,36.5478883 136.430671,37.3738915 Z M147.210691,35.100679 C147.436457,35.8977492 146.973324,36.7269222 146.176254,36.9526886 C143.803209,37.6248423 141.465926,38.1414941 139.164501,38.5022918 C138.34607,38.6305984 137.578588,38.0711421 137.450282,37.2527114 C137.321975,36.4342806 137.881431,35.6667983 138.699862,35.5384918 C140.880374,35.1966499 143.099948,34.7060173 145.358681,34.0662418 C146.155751,33.8404754 146.984924,34.3036087 147.210691,35.100679 Z M117.630854,33.8635248 C119.839951,34.5980605 122.029076,35.152162 124.198579,35.5263826 C125.01495,35.6671996 125.562595,36.4431541 125.421778,37.2595254 C125.280961,38.0758966 124.505007,38.6235416 123.688636,38.4827245 C121.369025,38.0826118 119.034128,37.4916129 116.684294,36.7102814 C115.898184,36.4488959 115.47281,35.5997329 115.734196,34.8136228 C115.995581,34.0275127 116.844744,33.6021393 117.630854,33.8635248 Z M157.451651,31.0731093 C157.793403,31.8277594 157.458683,32.7165692 156.704033,33.0583216 C154.467981,34.0709448 152.261278,34.957121 150.08385,35.7166722 C149.301647,35.9895276 148.446353,35.57662 148.173498,34.7944171 C147.900643,34.0122142 148.31355,33.1569203 149.095753,32.8840649 C151.187164,32.1545191 153.310751,31.3017207 155.466439,30.3254916 C156.221089,29.9837393 157.109899,30.3184591 157.451651,31.0731093 Z M107.850531,29.5039345 C109.914147,30.6517852 111.961241,31.6496204 113.991737,32.4977578 C114.756158,32.8170564 115.117001,33.6955849 114.797703,34.4600062 C114.478404,35.2244275 113.599876,35.5852708 112.835454,35.2659723 C110.699817,34.3739172 108.552107,33.3270379 106.392246,32.1256522 C105.668278,31.7229577 105.407835,30.8096179 105.81053,30.0856506 C106.213224,29.3616832 107.126564,29.1012401 107.850531,29.5039345 Z M178.993142,16.3966321 C179.613538,16.3134851 180.183873,16.7490119 180.26702,17.3694083 C180.299595,17.6124629 180.252458,17.8595263 180.132685,18.0735148 L180.132685,18.0735148 L170.995378,34.398393 C170.689658,34.9445983 169.999035,35.13955 169.45283,34.8338298 C169.299294,34.747893 169.167875,34.6273892 169.06898,34.4818615 L169.06898,34.4818615 L165.148174,28.7138923 C163.534509,29.6403393 161.935345,30.5050643 160.350646,31.3080345 C159.61167,31.6824751 158.709067,31.3869607 158.334627,30.6479845 C157.960186,29.9090084 158.255701,29.0064058 158.994677,28.6319652 C160.467431,27.8857177 161.954568,27.0836821 163.456055,26.2258294 L159.664,20.6420644 C159.312181,20.1243495 159.446667,19.4194532 159.964382,19.0676345 C160.10991,18.9687396 160.276464,18.9050856 160.450855,18.8817133 L160.450855,18.8817133 Z M98.814425,23.5969483 C100.714589,25.0204075 102.601778,26.322161 104.475867,27.5023233 C105.176879,27.9437686 105.3873,28.869913 104.945854,29.5709248 C104.504409,30.2719367 103.578265,30.482357 102.877253,30.0409117 C100.933455,28.8168523 98.9796704,27.4691625 97.0157705,25.9979568 C96.3527503,25.5012721 96.2179088,24.5611455 96.7145935,23.8981253 C97.2112782,23.2351051 98.1514048,23.1002636 98.814425,23.5969483 Z M76.9839173,5.68408133 C77.1892079,5.09276 77.8349896,4.77982032 78.4263109,4.985111 L78.4263109,4.985111 L96.0996063,11.1207984 C96.2658245,11.1785048 96.4163243,11.2741186 96.5391872,11.4000678 C96.9762723,11.8481323 96.9673718,12.5656878 96.5193073,13.0027729 L96.5193073,13.0027729 L91.6754705,17.7304607 C93.0248336,18.9357714 94.3680511,20.08175 95.705082,21.1684113 C96.3479597,21.690905 96.4455502,22.6356253 95.9230564,23.278503 C95.4005627,23.9213807 94.4558424,24.0189712 93.8129647,23.4964774 C92.3882602,22.3385602 90.9581456,21.1163047 89.5225751,19.8297275 L84.5414392,24.6871343 C84.41549,24.8099972 84.2626648,24.9018486 84.0950665,24.9554143 C83.498835,25.1459746 82.8610143,24.8171131 82.670454,24.2208816 L82.670454,24.2208816 L76.9750267,6.40083285 C76.9003703,6.1672455 76.9034899,5.91574502 76.9839173,5.68408133 Z" fill="#DDCC77" fill-rule="nonzero"></path>
            <rect id="Rectangle-2" stroke="#DDCC77" stroke-width="2" stroke-linejoin="round" x="39" y="31" width="83" height="52"></rect>
            <text id="WBISI" font-family="ArialMT, Arial" font-size="15" font-weight="normal" fill="#000000">
                <tspan x="59.2487793" y="63">WBISI</tspan>
            </text>
            <path id="Line-2" d="M83.5405757,78.2595033 L83.6481403,78.3050622 L244.876,157.837 L247.161571,153.205552 C247.348609,152.826388 247.784943,152.652022 248.174969,152.782757 L248.279969,152.826052 C248.39624,152.883408 248.49756,152.967046 248.575906,153.070344 L248.575906,153.070344 L256.906078,164.053586 C257.184792,164.421069 257.112832,164.944915 256.745349,165.22363 C256.60138,165.332823 256.425878,165.392375 256.245186,165.393347 L256.245186,165.393347 L242.46049,165.467539 C241.999275,165.470022 241.623374,165.098145 241.620892,164.636931 C241.620194,164.507285 241.64969,164.379257 241.707046,164.262987 L241.707046,164.262987 L243.991,159.631 L82.7633539,80.0987045 C82.2680532,79.8543775 82.0645989,79.2547908 82.3089259,78.7594901 C82.535801,78.2995681 83.0689969,78.0912891 83.5405757,78.2595033 Z" fill="#DDCC77" fill-rule="nonzero"></path>
            <rect id="Rectangle" stroke="#DDCC77" stroke-width="2" stroke-linejoin="round" x="39" y="106" width="83" height="52"></rect>
            <text id="Fasting-glucose" font-family="ArialMT, Arial" font-size="15" font-weight="normal" fill="#000000">
                <tspan x="55.9052734" y="129">Fasting </tspan>
                <tspan x="54.6491699" y="146">glucose</tspan>
            </text>
            <path id="Line" d="M235.779231,125.933725 L249.545445,126.651167 C250.006041,126.675172 250.359969,127.068018 250.335964,127.528615 C250.32656,127.709064 250.258882,127.881595 250.143089,128.020312 L250.143089,128.020312 L241.309406,138.602818 C241.013845,138.956892 240.487211,139.004326 240.133137,138.708765 C240.033608,138.625684 239.954789,138.520571 239.902923,138.40175 L239.902923,138.40175 L237.836,133.668 L126.228578,182.386345 C125.722414,182.60729 125.132976,182.376075 124.912031,181.869911 C124.706868,181.399902 124.891577,180.85809 125.324274,180.606185 L125.428465,180.553364 L237.036,131.835 L234.970391,127.101802 C234.80007,126.711612 234.951496,126.262167 235.308269,126.050204 L235.401673,126.002333 C235.520494,125.950467 235.649759,125.926977 235.779231,125.933725 L235.779231,125.933725 Z" fill="#DDCC77" fill-rule="nonzero"></path>
            <path id="Line-2" d="M139.564515,74.6423571 C140.024551,74.6754031 140.370695,75.0751252 140.337649,75.5351613 L140.337649,75.5351613 L139.961379,80.7872148 C150.366109,82.643855 159.043012,86.9565305 165.96583,93.7220369 C173.076832,100.671451 177.963685,109.843325 180.62983,121.214938 L185.821327,120.450866 C186.277621,120.383626 186.702029,120.699017 186.769268,121.155311 C186.788169,121.283573 186.776948,121.414475 186.736492,121.537649 L186.736492,121.537649 L182.435049,134.63425 C182.291129,135.072442 181.819235,135.310997 181.381042,135.167077 C181.209371,135.110694 181.060617,135.00015 180.95711,134.85204 L180.95711,134.85204 L173.060695,123.552925 C172.796493,123.174874 172.888786,122.654225 173.266837,122.390023 C173.373106,122.315757 173.495206,122.267253 173.623469,122.248352 L173.623469,122.248352 L178.644069,121.507796 C176.053218,110.567828 171.360052,101.790158 164.567962,95.1524088 C157.985592,88.7196144 149.743936,84.6010128 139.817288,82.7934668 L139.454248,87.8330595 C139.444959,87.9623739 139.405689,88.0877496 139.33955,88.1992577 C139.104258,88.5959478 138.591936,88.7267872 138.195246,88.4914956 L138.195246,88.4914956 L126.339048,81.4591454 C126.183635,81.3669645 126.062313,81.2268634 125.993292,81.0598712 C125.817115,80.6336238 126.019837,80.1452622 126.446084,79.969085 L126.446084,79.969085 L139.185683,74.703537 C139.305499,74.6540142 139.435201,74.633068 139.564515,74.6423571 Z" fill="#DDCC77" fill-rule="nonzero"></path>
            <rect id="Rectangle" stroke="#DDCC77" stroke-width="2" stroke-linejoin="round" x="457" y="106" width="83" height="52"></rect>
            <text id="BMI" font-family="ArialMT, Arial" font-size="15" font-weight="normal" fill="#000000">
                <tspan x="485.16626" y="138">BMI</tspan>
            </text>
            <path id="Line" d="M443.382046,145.689392 L443.50571,145.690802 C443.681286,145.702265 443.851782,145.754449 444.003696,145.843222 L444.003696,145.843222 L460.156075,155.282115 C460.696509,155.597925 460.878602,156.292049 460.562791,156.832483 C460.439065,157.04421 460.250004,157.210096 460.023987,157.305243 L460.023987,157.305243 L442.781446,164.563811 C442.204537,164.806671 441.539983,164.535871 441.297122,163.958962 C441.228855,163.796796 441.199282,163.620961 441.210745,163.445385 L441.210745,163.445385 L441.657,156.593 L328.842728,149.227979 C328.016061,149.174007 327.389668,148.460107 327.443641,147.63344 C327.491263,146.904028 328.05267,146.330539 328.751988,146.242772 L328.893579,146.231793 L329.03818,146.234353 L441.853,153.599 L442.300907,146.747925 C442.338969,146.164952 442.811391,145.713799 443.382046,145.689392 Z" fill="#DDCC77" fill-rule="nonzero"></path>
            <rect id="Rectangle" stroke="#DDCC77" stroke-width="2" stroke-linejoin="round" x="457" y="181" width="83" height="52"></rect>
            <text id="Age" font-family="ArialMT, Arial" font-size="15" font-weight="normal" fill="#000000">
                <tspan x="484.155273" y="213">Age</tspan>
            </text>
            <path id="Line" d="M433.924745,172.573697 L452.607464,173.547369 C453.232559,173.579947 453.71289,174.113096 453.680312,174.738191 C453.667549,174.983086 453.575701,175.217236 453.418553,175.405495 L453.418553,175.405495 L441.429984,189.767467 C441.028865,190.247996 440.314147,190.312371 439.833618,189.911252 C439.698543,189.798499 439.591575,189.655845 439.521185,189.494589 L439.521185,189.494589 L436.774,183.201 L339.575339,225.629833 C338.816093,225.961251 337.931936,225.614428 337.600518,224.855183 C337.288596,224.140598 337.577468,223.315366 338.24552,222.944447 L338.375169,222.880362 L435.574,180.451 L432.827035,174.158944 C432.593316,173.623518 432.806012,173.005875 433.301826,172.722308 L433.412346,172.666808 C433.573603,172.596418 433.749033,172.56454 433.924745,172.573697 L433.924745,172.573697 Z" fill="#DDCC77" fill-rule="nonzero"></path>
            <rect id="Rectangle" stroke="#DDCC77" stroke-width="2" stroke-linejoin="round" x="38" y="181" width="83" height="52"></rect>
            <text id="CRP" font-family="ArialMT, Arial" font-size="15" font-weight="normal" fill="#000000">
                <tspan x="65.1650391" y="213">CRP</tspan>
            </text>
            <path id="Line" d="M236.508903,156.750224 C237.117924,156.60566 237.728825,156.982177 237.873389,157.591198 C237.930025,157.829796 237.907746,158.080327 237.809897,158.305187 L237.809897,158.305187 L230.345074,175.459442 C230.095313,176.033397 229.427559,176.296208 228.853604,176.046447 C228.692267,175.97624 228.549492,175.869433 228.436586,175.734487 L228.436586,175.734487 L224.03,170.467 L136.906078,243.362747 C136.270707,243.894344 135.324693,243.810219 134.793096,243.174848 C134.294724,242.579187 134.337514,241.710501 134.868339,241.166219 L134.980996,241.061865 L222.105,168.166 L217.699111,162.900927 C217.326137,162.455144 217.354304,161.806978 217.744604,161.395063 L217.841084,161.304399 C217.976031,161.191492 218.135413,161.111556 218.306606,161.070919 L218.306606,161.070919 Z" fill="#DDCC77" fill-rule="nonzero"></path>
            <path id="Line" d="M-4.06960808,377.517262 L-3.98254664,377.524532 L4.76051132,378.969871 C4.84274016,378.983465 4.92067482,379.016017 4.98814335,379.064949 C5.22816278,379.239025 5.28162006,379.574716 5.10754352,379.814736 L5.10754352,379.814736 L3.075,382.616 L6.11257739,384.80595 C121.258143,467.611988 211.606115,514.200564 277.123002,524.576318 C343.238153,535.046819 446.159621,518.474153 585.854913,474.843581 L584.817002,471.54073 C584.728024,471.257896 584.885174,470.956483 585.168007,470.867504 C585.247511,470.842493 585.331746,470.836335 585.414041,470.849519 L585.414041,470.849519 L594.164186,472.251319 C594.456952,472.298221 594.656264,472.573577 594.609362,472.866343 C594.590987,472.981041 594.535907,473.086685 594.452388,473.167418 L594.452388,473.167418 L588.080862,479.326454 C587.86768,479.532526 587.527808,479.526763 587.321736,479.313581 C587.26381,479.253657 587.220632,479.181068 587.19562,479.101565 L587.19562,479.101565 L586.156,475.796 L582.476701,476.942717 C444.514837,519.76038 342.688679,535.972262 276.966584,525.564009 C210.6825,515.066755 119.201458,467.686369 2.48907666,383.427618 L0.45404893,386.231046 C0.405116694,386.298515 0.341148033,386.353664 0.267208867,386.392127 C0.00417013121,386.528957 -0.319987941,386.426645 -0.456818452,386.163607 L-0.456818452,386.163607 L-4.54638182,378.301957 C-4.59998831,378.198905 -4.61872488,378.081247 -4.5997792,377.966642 C-4.55142037,377.674112 -4.27507594,377.476173 -3.98254664,377.524532 Z" fill="url(#linearGradient-3)" fill-rule="nonzero"></path>
        </g>
        <g id="gut" transform="translate(177.000000, 407.000000)">
            <rect id="Rectangle" stroke="#88CCEE" stroke-width="2" stroke-linejoin="round" x="212" y="283" width="83" height="52"></rect>
            <text id="Cluster-2" font-family="ArialMT, Arial" font-size="15" font-weight="normal" fill="#000000">
                <tspan x="223.489014" y="315">Cluster 2</tspan>
            </text>
            <path id="Line" d="M224.949936,219.538091 C225.12238,218.93637 225.749965,218.588373 226.351686,218.760817 C226.587424,218.828376 226.794891,218.970573 226.942946,219.166063 L226.942946,219.166063 L238.237849,234.079721 C238.615759,234.578709 238.517606,235.289575 238.018618,235.667485 C237.878354,235.773714 237.715284,235.845828 237.542321,235.878114 L237.542321,235.878114 L230.792,237.138 L239.794083,285.360679 C239.946097,286.17504 239.409159,286.958442 238.594798,287.110456 C237.828341,287.253528 237.089308,286.786317 236.87828,286.051918 L236.845022,285.911171 L227.843,237.688 L221.093434,238.948573 C220.519139,239.055775 219.965223,238.709512 219.800535,238.162593 L219.771337,238.042417 C219.73905,237.869454 219.747478,237.69135 219.795951,237.522208 L219.795951,237.522208 Z" fill="#88CCEE" fill-rule="nonzero"></path>
            <rect id="Rectangle" stroke="#88CCEE" stroke-width="2" stroke-linejoin="round" x="107" y="283" width="84" height="52"></rect>
            <text id="Cluster-1" font-family="ArialMT, Arial" font-size="15" font-weight="normal" fill="#000000">
                <tspan x="120.989014" y="315">Cluster 1</tspan>
            </text>
            <path id="Line-2" d="M189.812538,260.288403 C189.943707,260.022496 190.265601,259.913269 190.531508,260.044438 C190.606254,260.08131 190.671388,260.135077 190.721753,260.201483 L190.721753,260.201483 L196.076863,267.262139 C196.256037,267.498378 196.209777,267.835136 195.973538,268.01431 C195.880986,268.084505 195.768164,268.122789 195.652005,268.123414 L195.652005,268.123414 L186.790414,268.171109 C186.493919,268.172704 186.252268,267.933641 186.250672,267.637146 C186.250224,267.553802 186.269186,267.471499 186.306057,267.396753 L186.306057,267.396753 L187.838,264.29 L184.699201,262.742665 C184.45155,262.620502 184.349823,262.320708 184.471987,262.073058 C184.580576,261.852924 184.829516,261.748088 185.057428,261.813308 L185.141594,261.845844 L188.28,263.394 Z M175.192395,256.946983 L175.276561,256.979519 L181.554309,260.076271 C181.801959,260.198435 181.903687,260.498228 181.781523,260.745878 C181.672933,260.966012 181.423994,261.070848 181.196082,261.005628 L181.111916,260.973092 L174.834168,257.87634 C174.586517,257.754176 174.48479,257.454383 174.606954,257.206733 C174.715543,256.986599 174.964483,256.881763 175.192395,256.946983 Z M165.327362,252.080657 L165.411528,252.113193 L171.689276,255.209946 C171.936926,255.332109 172.038654,255.631903 171.91649,255.879553 C171.8079,256.099687 171.558961,256.204523 171.331049,256.139303 L171.246883,256.106767 L164.969134,253.010014 C164.721484,252.887851 164.619757,252.588058 164.74192,252.340407 C164.85051,252.120274 165.09945,252.015437 165.327362,252.080657 Z M155.462328,247.214332 L155.546495,247.246868 L161.824243,250.34362 C162.071893,250.465784 162.17362,250.765577 162.051457,251.013228 C161.942867,251.233361 161.693928,251.338198 161.466016,251.272977 L161.38185,251.240442 L155.104101,248.143689 C154.856451,248.021526 154.754724,247.721732 154.876887,247.474082 C154.985477,247.253948 155.234416,247.149112 155.462328,247.214332 Z M145.597295,242.348007 L145.681461,242.380543 L151.95921,245.477295 C152.20686,245.599459 152.308587,245.899252 152.186424,246.146902 C152.077834,246.367036 151.828895,246.471872 151.600983,246.406652 L151.516817,246.374116 L145.239068,243.277364 C144.991418,243.1552 144.889691,242.855407 145.011854,242.607757 C145.120444,242.387623 145.369383,242.282787 145.597295,242.348007 Z M135.732262,237.481681 L135.816428,237.514217 L142.094177,240.61097 C142.341827,240.733133 142.443554,241.032927 142.321391,241.280577 C142.212801,241.500711 141.963862,241.605547 141.73595,241.540327 L141.651784,241.507791 L135.374035,238.411039 C135.126385,238.288875 135.024658,237.989082 135.146821,237.741431 C135.255411,237.521298 135.50435,237.416461 135.732262,237.481681 Z" fill="#88CCEE" fill-rule="nonzero"></path>
            <rect id="Rectangle" stroke="#88CCEE" stroke-width="2" stroke-linejoin="round" x="-1" y="157" width="83" height="52"></rect>
            <text id="Fecal-calprotectin" font-family="ArialMT, Arial" font-size="15" font-weight="normal" fill="#000000">
                <tspan x="22.1601562" y="180">Fecal </tspan>
                <tspan x="2.14672852" y="197">calprotectin</tspan>
            </text>
            <path id="Line" d="M97.8886983,204.447135 C98.2321379,204.823893 98.2336241,205.391799 97.9107959,205.769575 L97.8233426,205.859837 L92.6501384,210.575551 C92.2419838,210.947611 91.6094953,210.91835 91.2374358,210.510195 C90.8939962,210.133437 90.89251,209.565531 91.2153381,209.187755 L91.3027915,209.097493 L96.4759957,204.381779 C96.8841503,204.009719 97.5166387,204.03898 97.8886983,204.447135 Z M106.018019,197.036727 C106.361459,197.413485 106.362945,197.981391 106.040117,198.359167 L105.952663,198.449429 L100.779459,203.165143 C100.371305,203.537203 99.7388162,203.507942 99.3667566,203.099788 C99.0233171,202.72303 99.0218309,202.155123 99.344659,201.777347 L99.4321124,201.687085 L104.605317,196.971371 C105.013471,196.599312 105.64596,196.628572 106.018019,197.036727 Z M114.14734,189.626319 C114.49078,190.003077 114.492266,190.570984 114.169438,190.948759 L114.081984,191.039022 L108.90878,195.754736 C108.500626,196.126795 107.868137,196.097535 107.496078,195.68938 C107.152638,195.312622 107.151152,194.744715 107.47398,194.36694 L107.561433,194.276677 L112.734637,189.560963 C113.142792,189.188904 113.77528,189.218165 114.14734,189.626319 Z M122.276661,182.215911 C122.620101,182.592669 122.621587,183.160576 122.298759,183.538352 L122.211305,183.628614 L117.038101,188.344328 C116.629946,188.716388 115.997458,188.687127 115.625398,188.278972 C115.281959,187.902214 115.280473,187.334308 115.603301,186.956532 L115.690754,186.86627 L120.863958,182.150556 C121.272113,181.778496 121.904601,181.807757 122.276661,182.215911 Z M130.405982,174.805504 C130.749421,175.182262 130.750908,175.750168 130.428079,176.127944 L130.340626,176.218206 L125.167422,180.93392 C124.759267,181.30598 124.126779,181.276719 123.754719,180.868565 C123.41128,180.491807 123.409793,179.9239 123.732622,179.546124 L123.820075,179.455862 L128.993279,174.740148 C129.401434,174.368088 130.033922,174.397349 130.405982,174.805504 Z M138.535303,167.395096 C138.878742,167.771854 138.880228,168.339761 138.5574,168.717536 L138.469947,168.807799 L133.296743,173.523513 C132.888588,173.895572 132.2561,173.866311 131.88404,173.458157 C131.540601,173.081399 131.539114,172.513492 131.861943,172.135717 L131.949396,172.045454 L137.1226,167.32974 C137.530755,166.957681 138.163243,166.986942 138.535303,167.395096 Z M148.633356,157.179219 C149.077182,157.053745 149.538691,157.311819 149.664165,157.755645 C149.713322,157.929524 149.704758,158.114657 149.639756,158.283254 L149.639756,158.283254 L144.68089,171.145331 C144.514974,171.575676 144.031608,171.790039 143.601263,171.624123 C143.480294,171.577484 143.371846,171.503322 143.284506,171.407508 L143.284506,171.407508 L134.978391,162.295584 C134.667678,161.954728 134.692115,161.426527 135.032971,161.115815 C135.128784,161.028475 135.243617,160.964642 135.368374,160.929372 L135.368374,160.929372 Z" fill="#88CCEE" fill-rule="nonzero"></path>
            <rect id="Rectangle" stroke="#88CCEE" stroke-width="2" stroke-linejoin="round" x="53" y="72" width="83" height="52"></rect>
            <text id="Stool-water-content" font-family="ArialMT, Arial" font-size="15" font-weight="normal" fill="#000000">
                <tspan x="56.9816895" y="95">Stool water </tspan>
                <tspan x="69.8979492" y="112">content</tspan>
            </text>
            <path id="Line" d="M152.563785,132.651195 C152.738679,132.631948 152.915653,132.653684 153.080691,132.714683 L153.080691,132.714683 L170.628522,139.200489 C171.215645,139.417494 171.515685,140.069369 171.29868,140.656493 C171.213664,140.886512 171.056335,141.082752 170.850311,141.215757 L170.850311,141.215757 L155.132968,151.362538 C154.607089,151.702033 153.905565,151.550941 153.56607,151.025062 C153.470639,150.87724 153.410935,150.709229 153.391687,150.534335 L153.391687,150.534335 L152.64,143.709 L88.9694223,150.716443 C88.145967,150.807068 87.4049587,150.212991 87.3143339,149.389536 C87.22904,148.614519 87.7502635,147.912535 88.4983991,147.757076 L88.641241,147.734447 L152.312,140.727 L151.5612,133.901748 C151.49729,133.32104 151.884048,132.794599 152.44176,132.671315 Z" fill="#88CCEE" fill-rule="nonzero"></path>
            <path id="Line" d="M144.840205,0.0321694062 C145.121418,-0.0618033131 145.425567,0.0899854181 145.51954,0.371199026 C145.556356,0.481370905 145.556445,0.600511843 145.519795,0.710738926 L145.519795,0.710738926 L142.723791,9.11980734 C142.630241,9.40116186 142.326321,9.55340751 142.044967,9.45985752 C141.965879,9.43356098 141.894,9.38921192 141.835022,9.3303225 L141.835022,9.3303225 L139.393,6.891 L139.170231,7.12596621 C129.070466,17.7870349 122.586695,27.4176944 119.713818,36.0058273 C116.67961,45.0762408 115.294535,60.0834009 115.571067,81.0045825 L119.028193,80.9251024 C119.111515,80.9231584 119.194146,80.9406406 119.269541,80.9761647 C119.537759,81.1025416 119.652744,81.4224238 119.526367,81.6906418 L119.526367,81.6906418 L115.74924,89.7070861 C115.699729,89.8121666 115.617471,89.8983541 115.514814,89.9527119 C115.252782,90.0914601 114.927885,89.9915186 114.789137,89.7294864 L114.789137,89.7294864 L110.642258,81.8979182 C110.603256,81.824262 110.581939,81.7425367 110.579995,81.6592145 C110.57308,81.3627956 110.807768,81.1168943 111.104187,81.1099785 L111.104187,81.1099785 L114.571,81.028 L114.566462,80.650516 C114.30954,59.8170119 115.705123,44.8371467 118.765472,35.6885894 C121.714101,26.8740051 128.355446,17.0437413 138.684288,6.18539169 L136.226169,3.72989221 C136.016354,3.52039299 136.016099,3.18047222 136.225598,2.97065792 C136.284488,2.91167993 136.3563,2.86722289 136.435348,2.84080753 L136.435348,2.84080753 Z" fill="#88CCEE" fill-rule="nonzero"></path>
        </g>
        <g id="legend" transform="translate(29.000000, 67.000000)">
            <rect id="Rectangle" stroke="#979797" x="0.5" y="0.5" width="132" height="148"></rect>
            <circle id="Oval" fill="#000000" cx="22.5" cy="20" r="10"></circle>
            <text id="latent-variable" font-family="ArialMT, Arial" font-size="12" font-weight="normal" line-spacing="11" fill="#000000">
                <tspan x="41" y="20">latent </tspan>
                <tspan x="41" y="31">variable</tspan>
            </text>
            <rect id="Rectangle" stroke="#000000" stroke-linejoin="round" x="12" y="46.5" width="21" height="21"></rect>
            <text id="observed-variable" font-family="ArialMT, Arial" font-size="12" font-weight="normal" line-spacing="11" fill="#000000">
                <tspan x="41" y="57">observed </tspan>
                <tspan x="41" y="68">variable</tspan>
            </text>
            <text id="regression/measured" font-family="ArialMT, Arial" font-size="12" font-weight="normal" line-spacing="11" fill="#000000">
                <tspan x="41" y="94">regression/</tspan>
                <tspan x="41" y="105">measured by</tspan>
            </text>
            <path id="Line-3" d="M24,85.5 L33,90 L24,94.5 L24,90.5 L12,90.5 L12,89.5 L24,89.5 L24,85.5 Z" fill="#000000" fill-rule="nonzero"></path>
            <text id="covariance" font-family="ArialMT, Arial" font-size="12" font-weight="normal" line-spacing="11" fill="#000000">
                <tspan x="41" y="132">covariance</tspan>
            </text>
            <path id="Line-3" d="M24,123.5 L33,128 L24,132.5 L24,128.5 L21,128.5 L21,132.5 L12,128 L21,123.5 L21,127.5 L24,127.5 L24,123.5 Z" fill="#000000" fill-rule="nonzero"></path>
        </g>
        <g id="metabolism-" transform="translate(529.000000, 187.000000)">
            <circle id="Oval" fill="#DDCC77" cx="50" cy="61" r="42"></circle>
            <text id="Metabolic-variation" font-family="Arial-BoldMT, Arial" font-size="15" font-weight="bold" fill="#000000">
                <tspan x="15.411377" y="58">Metabolic</tspan>
                <tspan x="18.7402344" y="75">variation</tspan>
            </text>
        </g>
    </g>
</svg>