<?xml version="1.0" encoding="UTF-8"?>
<svg width="469px" height="213px" viewBox="0 0 469 213" version="1.1" xmlns="http://www.w3.org/2000/svg" xmlns:xlink="http://www.w3.org/1999/xlink">
    <!-- Generator: Sketch 64 (93537) - https://sketch.com -->
    <title>Group 248</title>
    <desc>Created with Sketch.</desc>
    <defs>
        <polygon id="path-1" points="0 0.5 3 0.5 3 9.828125 0 9.828125"></polygon>
        <polygon id="path-3" points="0.3579 0.5 48.3579 0.5 48.3579 19.828125 0.3579 19.828125"></polygon>
    </defs>
    <g id="Page-1" stroke="none" stroke-width="1" fill="none" fill-rule="evenodd">
        <g id="Fig8" transform="translate(-54.000000, -491.000000)">
            <g id="Group-248" transform="translate(54.000000, 491.000000)">
                <g id="Group-2" transform="translate(4.000000, 4.000000)">
                    <mask id="mask-2" fill="white">
                        <use xlink:href="#path-1"></use>
                    </mask>
                    <g id="Clip-1"></g>
                    <text id="-" mask="url(#mask-2)" font-family="ArialMT, Arial" font-size="10" font-weight="normal"></text>
                </g>
                <g id="Group-4" transform="translate(136.000000, 5.000000)" font-family="ArialMT, Arial" font-size="10" font-weight="normal">
                    <text id="Predictors" fill="#000000">
                        <tspan x="0.9177" y="9.828125">Pr</tspan>
                        <tspan x="10.9177" y="9.828125" letter-spacing="0.002">edi</tspan>
                        <tspan x="24.2684266" y="9.828125">c</tspan>
                        <tspan x="29.2684266" y="9.828125" letter-spacing="-0.002">t</tspan>
                        <tspan x="32.0447469" y="9.828125" letter-spacing="0.002">o</tspan>
                        <tspan x="37.6082703" y="9.828125">rs</tspan>
                    </text>
                    <text id="-"></text>
                </g>
                <g id="Group-6" transform="translate(274.000000, 4.000000)">
                    <mask id="mask-4" fill="white">
                        <use xlink:href="#path-3"></use>
                    </mask>
                    <g id="Clip-5"></g>
                    <text id="Integrated-" mask="url(#mask-4)" font-family="ArialMT, Arial" font-size="10" font-weight="normal" letter-spacing="-0.002" fill="#000000">
                        <tspan x="0.3579" y="6.828125">I</tspan>
                        <tspan x="3.13422031" y="6.828125" letter-spacing="0.002">n</tspan>
                        <tspan x="8.69774375" y="6.828125">t</tspan>
                        <tspan x="11.4740641" y="6.828125" letter-spacing="0.002">eg</tspan>
                        <tspan x="22.6011109" y="6.828125">r</tspan>
                        <tspan x="25.9311891" y="6.828125" letter-spacing="0.002">a</tspan>
                        <tspan x="31.4947125" y="6.828125">t</tspan>
                        <tspan x="34.2710328" y="6.828125" letter-spacing="0.002">ed</tspan>
                        <tspan x="45.3980797" y="6.828125"> </tspan>
                    </text>
                    <text id="AUC" mask="url(#mask-4)" font-family="ArialMT, Arial" font-size="10" font-weight="normal" fill="#000000">
                        <tspan x="12.3184" y="17.828125">A</tspan>
                        <tspan x="18.9883219" y="17.828125" letter-spacing="0.002">U</tspan>
                        <tspan x="26.2120016" y="17.828125">C</tspan>
                    </text>
                    <text id="-" mask="url(#mask-4)" font-family="ArialMT, Arial" font-size="10" font-weight="normal"></text>
                </g>
                <g id="Group-8" transform="translate(338.000000, 5.000000)" font-family="ArialMT, Arial" font-size="10" font-weight="normal">
                    <text id="AIC" fill="#000000">
                        <tspan x="0.8401" y="9.828125">A</tspan>
                        <tspan x="7.51002188" y="9.828125" letter-spacing="-0.002">I</tspan>
                        <tspan x="10.2863422" y="9.828125">C</tspan>
                    </text>
                    <text id="-"></text>
                </g>
                <g id="Group-10" transform="translate(403.000000, 5.000000)" font-family="ArialMT, Arial" font-size="10" font-weight="normal">
                    <text id="P-value" fill="#000000">
                        <tspan x="-0.0022" y="9.828125">P</tspan>
                        <tspan x="6.48705781" y="9.828125" letter-spacing="-0.002"> </tspan>
                        <tspan x="9.26337813" y="9.828125">v</tspan>
                        <tspan x="14.2633781" y="9.828125" letter-spacing="0.002">alu</tspan>
                        <tspan x="27.6141047" y="9.828125">e</tspan>
                    </text>
                    <text id="-"></text>
                </g>
                <g id="Group-34" fill="#000000">
                    <polygon id="Fill-11" points="0 0 1 0 1 4 0 4"></polygon>
                    <polygon id="Fill-12" points="0 0 1 0 1 1 0 1"></polygon>
                    <polygon id="Fill-13" points="1 0 46 0 46 1 1 1"></polygon>
                    <polygon id="Fill-14" points="46 1 47 1 47 4 46 4"></polygon>
                    <polygon id="Fill-15" points="46 0 47 0 47 1 46 1"></polygon>
                    <polygon id="Fill-16" points="47 0 270 0 270 1 47 1"></polygon>
                    <polygon id="Fill-17" points="270 1 271 1 271 4 270 4"></polygon>
                    <polygon id="Fill-18" points="270 0 271 0 271 1 270 1"></polygon>
                    <polygon id="Fill-19" points="271 0 322 0 322 1 271 1"></polygon>
                    <polygon id="Fill-20" points="322 1 323 1 323 4 322 4"></polygon>
                    <polygon id="Fill-21" points="322 0 323 0 323 1 322 1"></polygon>
                    <polygon id="Fill-22" points="323 0 370 0 370 1 323 1"></polygon>
                    <polygon id="Fill-23" points="370 1 371 1 371 4 370 4"></polygon>
                    <polygon id="Fill-24" points="370 0 371 0 371 1 370 1"></polygon>
                    <polygon id="Fill-25" points="371 0 468 0 468 1 371 1"></polygon>
                    <polygon id="Fill-26" points="468 0 469 0 469 4 468 4"></polygon>
                    <polygon id="Fill-27" points="468 0 469 0 469 1 468 1"></polygon>
                    <polygon id="Fill-28" points="0 4 1 4 1 27 0 27"></polygon>
                    <polygon id="Fill-29" points="46 4 47 4 47 27 46 27"></polygon>
                    <polygon id="Fill-30" points="270 4 271 4 271 27 270 27"></polygon>
                    <polygon id="Fill-31" points="322 4 323 4 323 27 322 27"></polygon>
                    <polygon id="Fill-32" points="370 4 371 4 371 27 370 27"></polygon>
                    <polygon id="Fill-33" points="468 4 469 4 469 27 468 27"></polygon>
                </g>
                <g id="Group-36" transform="translate(7.000000, 32.000000)" font-family="ArialMT, Arial" font-size="10" font-weight="normal">
                    <text id="Model1" fill="#B6A085">
                        <tspan x="0.151123" y="9.828125">M</tspan>
                        <tspan x="8.48120113" y="9.828125" letter-spacing="0.002">odel</tspan>
                        <tspan x="27.3954511" y="9.828125">1</tspan>
                    </text>
                    <text id="-"></text>
                </g>
                <g id="Group-38" transform="translate(126.000000, 32.000000)" font-family="ArialMT, Arial" font-size="10" font-weight="normal">
                    <text id="Treatment.Arm" letter-spacing="-0.002" fill="#B6A085">
                        <tspan x="0.0852" y="9.828125">T</tspan>
                        <tspan x="5.82050469" y="9.828125">r</tspan>
                        <tspan x="9.15058281" y="9.828125" letter-spacing="0.002">ea</tspan>
                        <tspan x="20.2776297" y="9.828125">t</tspan>
                        <tspan x="23.05395" y="9.828125">m</tspan>
                        <tspan x="31.3840281" y="9.828125" letter-spacing="0.002">en</tspan>
                        <tspan x="42.511075" y="9.828125">t.</tspan>
                        <tspan x="48.0637156" y="9.828125">Arm</tspan>
                    </text>
                    <text id="-"></text>
                </g>
                <g id="Group-40" transform="translate(287.000000, 32.000000)" font-family="ArialMT, Arial" font-size="10" font-weight="normal">
                    <text id="0.59" letter-spacing="0.0002" fill="#B6A085">
                        <tspan x="0.1436" y="9.828125">0.59</tspan>
                    </text>
                    <text id="-"></text>
                </g>
                <g id="Group-42" transform="translate(331.000000, 32.000000)" font-family="ArialMT, Arial" font-size="10" font-weight="normal">
                    <text id="238.51" letter-spacing="0.0002" fill="#B6A085">
                        <tspan x="0.8821" y="9.828125">238.51</tspan>
                    </text>
                    <text id="-"></text>
                </g>
                <g id="Group-44" transform="translate(418.000000, 32.000000)" font-family="ArialMT, Arial" font-size="10" font-weight="normal">
                    <text id="-" fill="#B6A085">
                        <tspan x="0.01" y="9.828125">-</tspan>
                    </text>
                    <text id="-"></text>
                </g>
                <g id="Group-66" transform="translate(0.000000, 27.000000)" fill="#000000">
                    <polygon id="Fill-45" points="0 0 1 0 1 5 0 5"></polygon>
                    <polygon id="Fill-46" points="1 0 46 0 46 2 1 2"></polygon>
                    <polygon id="Fill-47" points="46 2 48 2 48 5 46 5"></polygon>
                    <polygon id="Fill-48" points="46 0 48 0 48 2 46 2"></polygon>
                    <polygon id="Fill-49" points="48 0 270 0 270 2 48 2"></polygon>
                    <polygon id="Fill-50" points="270 2 271 2 271 5 270 5"></polygon>
                    <polygon id="Fill-51" points="270 0 272 0 272 2 270 2"></polygon>
                    <polygon id="Fill-52" points="272 0 322 0 322 2 272 2"></polygon>
                    <polygon id="Fill-53" points="322 2 323 2 323 5 322 5"></polygon>
                    <polygon id="Fill-54" points="322 0 324 0 324 2 322 2"></polygon>
                    <polygon id="Fill-55" points="324 0 370 0 370 2 324 2"></polygon>
                    <polygon id="Fill-56" points="370 2 371 2 371 5 370 5"></polygon>
                    <polygon id="Fill-57" points="370 0 372 0 372 2 370 2"></polygon>
                    <polygon id="Fill-58" points="372 0 468 0 468 2 372 2"></polygon>
                    <polygon id="Fill-59" points="468 0 469 0 469 5 468 5"></polygon>
                    <polygon id="Fill-60" points="0 5 1 5 1 26 0 26"></polygon>
                    <polygon id="Fill-61" points="46 5 48 5 48 26 46 26"></polygon>
                    <polygon id="Fill-62" points="270 5 271 5 271 26 270 26"></polygon>
                    <polygon id="Fill-63" points="322 5 323 5 323 26 322 26"></polygon>
                    <polygon id="Fill-64" points="370 5 371 5 371 26 370 26"></polygon>
                    <polygon id="Fill-65" points="468 5 469 5 469 26 468 26"></polygon>
                </g>
                <g id="Group-68" transform="translate(7.000000, 58.000000)" font-family="ArialMT, Arial" font-size="10" font-weight="normal">
                    <text id="Model2" fill="#57AAE3">
                        <tspan x="0.151123" y="9.828125">M</tspan>
                        <tspan x="8.48120113" y="9.828125" letter-spacing="0.002">odel</tspan>
                        <tspan x="27.3954511" y="9.828125">2</tspan>
                    </text>
                    <text id="-"></text>
                </g>
                <g id="Group-70" transform="translate(114.000000, 58.000000)" font-family="ArialMT, Arial" font-size="10" font-weight="normal">
                    <text id="Age+Treatment.Arm" fill="#57AAE3">
                        <tspan x="0.2688" y="9.828125">A</tspan>
                        <tspan x="6.93872187" y="9.828125" letter-spacing="0.002">ge</tspan>
                        <tspan x="18.0657687" y="9.828125">+</tspan>
                        <tspan x="23.9056125" y="9.828125" letter-spacing="-0.002">T</tspan>
                        <tspan x="29.6409172" y="9.828125">r</tspan>
                        <tspan x="32.9709953" y="9.828125" letter-spacing="0.002">ea</tspan>
                        <tspan x="44.0980422" y="9.828125" letter-spacing="-0.002">t</tspan>
                        <tspan x="46.8743625" y="9.828125">m</tspan>
                        <tspan x="55.2044406" y="9.828125" letter-spacing="0.002">en</tspan>
                        <tspan x="66.3314875" y="9.828125" letter-spacing="-0.002">t.</tspan>
                        <tspan x="71.8841281" y="9.828125">Arm</tspan>
                    </text>
                    <text id="-"></text>
                </g>
                <g id="Group-72" transform="translate(287.000000, 58.000000)" font-family="ArialMT, Arial" font-size="10" font-weight="normal">
                    <text id="0.63" letter-spacing="0.0002" fill="#57AAE3">
                        <tspan x="0.1436" y="9.828125">0.63</tspan>
                    </text>
                    <text id="-"></text>
                </g>
                <g id="Group-74" transform="translate(331.000000, 58.000000)" font-family="ArialMT, Arial" font-size="10" font-weight="normal">
                    <text id="237.42" letter-spacing="0.0002" fill="#57AAE3">
                        <tspan x="0.8821" y="9.828125">237.42</tspan>
                    </text>
                    <text id="-"></text>
                </g>
                <g id="Group-76" transform="translate(376.000000, 58.000000)" font-family="ArialMT, Arial" font-size="10" font-weight="normal">
                    <text id="(vs-model1)-0.0318" fill="#57AAE3">
                        <tspan x="0.8748" y="9.828125">(vs</tspan>
                        <tspan x="14.2048781" y="9.828125" letter-spacing="-0.002"> </tspan>
                        <tspan x="16.9811984" y="9.828125">m</tspan>
                        <tspan x="25.3112766" y="9.828125" letter-spacing="0.002">odel1</tspan>
                        <tspan x="49.78905" y="9.828125">)</tspan>
                        <tspan x="53.1191281" y="9.828125" letter-spacing="-0.002"> </tspan>
                        <tspan x="55.8954484" y="9.828125" letter-spacing="0.002">0</tspan>
                        <tspan x="61.4589719" y="9.828125" letter-spacing="-0.002">.</tspan>
                        <tspan x="64.2352922" y="9.828125" letter-spacing="0.002">031</tspan>
                        <tspan x="80.9258625" y="9.828125">8</tspan>
                    </text>
                    <text id="-"></text>
                </g>
                <g id="Group-94" transform="translate(0.000000, 53.000000)" fill="#000000">
                    <polygon id="Fill-77" points="0 0 1 0 1 4 0 4"></polygon>
                    <polygon id="Fill-78" points="1 0 46 0 46 1 1 1"></polygon>
                    <polygon id="Fill-79" points="46 0 48 0 48 4 46 4"></polygon>
                    <polygon id="Fill-80" points="48 0 270 0 270 1 48 1"></polygon>
                    <polygon id="Fill-81" points="270 0 271 0 271 4 270 4"></polygon>
                    <polygon id="Fill-82" points="271 0 322 0 322 1 271 1"></polygon>
                    <polygon id="Fill-83" points="322 0 323 0 323 4 322 4"></polygon>
                    <polygon id="Fill-84" points="323 0 370 0 370 1 323 1"></polygon>
                    <polygon id="Fill-85" points="370 0 371 0 371 4 370 4"></polygon>
                    <polygon id="Fill-86" points="371 0 468 0 468 1 371 1"></polygon>
                    <polygon id="Fill-87" points="468 0 469 0 469 4 468 4"></polygon>
                    <polygon id="Fill-88" points="0 4 1 4 1 27 0 27"></polygon>
                    <polygon id="Fill-89" points="46 4 48 4 48 27 46 27"></polygon>
                    <polygon id="Fill-90" points="270 4 271 4 271 27 270 27"></polygon>
                    <polygon id="Fill-91" points="322 4 323 4 323 27 322 27"></polygon>
                    <polygon id="Fill-92" points="370 4 371 4 371 27 370 27"></polygon>
                    <polygon id="Fill-93" points="468 4 469 4 469 27 468 27"></polygon>
                </g>
                <g id="Group-96" transform="translate(7.000000, 84.000000)" font-family="ArialMT, Arial" font-size="10" font-weight="normal">
                    <text id="Model3" fill="#7C6C81">
                        <tspan x="0.151123" y="9.828125">M</tspan>
                        <tspan x="8.48120113" y="9.828125" letter-spacing="0.002">odel</tspan>
                        <tspan x="27.3954511" y="9.828125">3</tspan>
                    </text>
                    <text id="-"></text>
                </g>
                <g id="Group-98" transform="translate(102.000000, 84.000000)" font-family="ArialMT, Arial" font-size="10" font-weight="normal">
                    <text id="Treatment.Arm*DR4+Age" letter-spacing="-0.002" fill="#7C6C81">
                        <tspan x="0.3206" y="9.828125">T</tspan>
                        <tspan x="6.05590469" y="9.828125">r</tspan>
                        <tspan x="9.38598281" y="9.828125" letter-spacing="0.002">ea</tspan>
                        <tspan x="20.5130297" y="9.828125">t</tspan>
                        <tspan x="23.28935" y="9.828125">m</tspan>
                        <tspan x="31.6194281" y="9.828125" letter-spacing="0.002">en</tspan>
                        <tspan x="42.746475" y="9.828125">t.</tspan>
                        <tspan x="48.2991156" y="9.828125">Arm</tspan>
                        <tspan x="66.6291937" y="9.828125" letter-spacing="0.002">*DR4</tspan>
                        <tspan x="90.5336781" y="9.828125">+A</tspan>
                        <tspan x="103.043444" y="9.828125" letter-spacing="0.002">g</tspan>
                        <tspan x="108.606967" y="9.828125">e</tspan>
                    </text>
                    <text id="-"></text>
                </g>
                <g id="Group-100" transform="translate(287.000000, 84.000000)" font-family="ArialMT, Arial" font-size="10" font-weight="normal">
                    <text id="0.70" letter-spacing="0.0002" fill="#7C6C81">
                        <tspan x="0.1436" y="9.828125">0.70</tspan>
                    </text>
                    <text id="-"></text>
                </g>
                <g id="Group-102" transform="translate(331.000000, 84.000000)" font-family="ArialMT, Arial" font-size="10" font-weight="normal">
                    <text id="232.61" letter-spacing="0.0002" fill="#7C6C81">
                        <tspan x="0.8821" y="9.828125">232.61</tspan>
                    </text>
                    <text id="-"></text>
                </g>
                <g id="Group-104" transform="translate(382.000000, 84.000000)" font-family="ArialMT, Arial" font-size="10" font-weight="normal">
                    <text id="(vs-Model2)-0.01" fill="#7C6C81">
                        <tspan x="0.4363" y="9.828125">(vs</tspan>
                        <tspan x="13.7663781" y="9.828125" letter-spacing="-0.002"> </tspan>
                        <tspan x="16.5426984" y="9.828125">M</tspan>
                        <tspan x="24.8727766" y="9.828125" letter-spacing="0.002">odel2</tspan>
                        <tspan x="49.35055" y="9.828125">)</tspan>
                        <tspan x="52.6806281" y="9.828125" letter-spacing="-0.002"> </tspan>
                        <tspan x="55.4569484" y="9.828125" letter-spacing="0.002">0</tspan>
                        <tspan x="61.0204719" y="9.828125" letter-spacing="-0.002">.</tspan>
                        <tspan x="63.7967922" y="9.828125" letter-spacing="0.002">0</tspan>
                        <tspan x="69.3603156" y="9.828125">1</tspan>
                    </text>
                    <text id="-"></text>
                </g>
                <g id="Group-122" transform="translate(0.000000, 80.000000)" fill="#000000">
                    <polygon id="Fill-105" points="0 0 1 0 1 4 0 4"></polygon>
                    <polygon id="Fill-106" points="1 0 46 0 46 1 1 1"></polygon>
                    <polygon id="Fill-107" points="46 0 48 0 48 4 46 4"></polygon>
                    <polygon id="Fill-108" points="48 0 270 0 270 1 48 1"></polygon>
                    <polygon id="Fill-109" points="270 0 271 0 271 4 270 4"></polygon>
                    <polygon id="Fill-110" points="271 0 322 0 322 1 271 1"></polygon>
                    <polygon id="Fill-111" points="322 0 323 0 323 4 322 4"></polygon>
                    <polygon id="Fill-112" points="323 0 370 0 370 1 323 1"></polygon>
                    <polygon id="Fill-113" points="370 0 371 0 371 4 370 4"></polygon>
                    <polygon id="Fill-114" points="371 0 468 0 468 1 371 1"></polygon>
                    <polygon id="Fill-115" points="468 0 469 0 469 4 468 4"></polygon>
                    <polygon id="Fill-116" points="0 4 1 4 1 26 0 26"></polygon>
                    <polygon id="Fill-117" points="46 4 48 4 48 26 46 26"></polygon>
                    <polygon id="Fill-118" points="270 4 271 4 271 26 270 26"></polygon>
                    <polygon id="Fill-119" points="322 4 323 4 323 26 322 26"></polygon>
                    <polygon id="Fill-120" points="370 4 371 4 371 26 370 26"></polygon>
                    <polygon id="Fill-121" points="468 4 469 4 469 26 468 26"></polygon>
                </g>
                <g id="Group-124" transform="translate(7.000000, 111.000000)" font-family="ArialMT, Arial" font-size="10" font-weight="normal">
                    <text id="Model4" fill="#6F252A">
                        <tspan x="0.151123" y="9.828125">M</tspan>
                        <tspan x="8.48120113" y="9.828125" letter-spacing="0.002">odel</tspan>
                        <tspan x="27.3954511" y="9.828125">4</tspan>
                    </text>
                    <text id="-"></text>
                </g>
                <g id="Group-126" transform="translate(69.000000, 111.000000)" font-size="10">
                    <text id="Treatment.Arm*DR4+Age+" font-family="ArialMT, Arial" font-weight="normal" letter-spacing="-0.002" fill="#6F252A">
                        <tspan x="0.94995" y="9.828125">T</tspan>
                        <tspan x="6.68525469" y="9.828125">r</tspan>
                        <tspan x="10.0153328" y="9.828125" letter-spacing="0.002">ea</tspan>
                        <tspan x="21.1423797" y="9.828125">t</tspan>
                        <tspan x="23.9187" y="9.828125">m</tspan>
                        <tspan x="32.2487781" y="9.828125" letter-spacing="0.002">en</tspan>
                        <tspan x="43.375825" y="9.828125">t.</tspan>
                        <tspan x="48.9284656" y="9.828125">Arm</tspan>
                        <tspan x="67.2585438" y="9.828125" letter-spacing="0.002">*DR4</tspan>
                        <tspan x="91.1630281" y="9.828125">+A</tspan>
                        <tspan x="103.672794" y="9.828125" letter-spacing="0.002">ge</tspan>
                        <tspan x="114.799841" y="9.828125">+</tspan>
                    </text>
                    <text id="Di.IgG2*DR4" font-family="Arial-BoldMT, Arial" font-weight="bold" letter-spacing="0.0002" fill="#6F252A">
                        <tspan x="120.9988" y="9.828125">Di.IgG2*DR4</tspan>
                    </text>
                    <text id="-" font-family="ArialMT, Arial" font-weight="normal"></text>
                </g>
                <g id="Group-128" transform="translate(287.000000, 111.000000)" font-family="ArialMT, Arial" font-size="10" font-weight="normal">
                    <text id="0.73" letter-spacing="0.0002" fill="#6F252A">
                        <tspan x="0.1436" y="9.828125">0.73</tspan>
                    </text>
                    <text id="-"></text>
                </g>
                <g id="Group-130" transform="translate(331.000000, 111.000000)" font-family="ArialMT, Arial" font-size="10" font-weight="normal">
                    <text id="231.15" letter-spacing="0.0002" fill="#6F252A">
                        <tspan x="0.8821" y="9.828125">231.15</tspan>
                    </text>
                    <text id="-"></text>
                </g>
                <g id="Group-132" transform="translate(382.000000, 111.000000)" font-family="ArialMT, Arial" font-size="10" font-weight="normal">
                    <text id="(vs" fill="#6F252A">
                        <tspan x="0.4363" y="9.828125">(vs</tspan>
                    </text>
                    <text id="-"></text>
                    <text id="Model3)-0.04" fill="#6F252A">
                        <tspan x="16.5447" y="9.828125">M</tspan>
                        <tspan x="24.8747781" y="9.828125" letter-spacing="0.002">odel3</tspan>
                        <tspan x="49.3525516" y="9.828125">)</tspan>
                        <tspan x="52.6826297" y="9.828125" letter-spacing="-0.002"> </tspan>
                        <tspan x="55.45895" y="9.828125" letter-spacing="0.002">0</tspan>
                        <tspan x="61.0224734" y="9.828125" letter-spacing="-0.002">.</tspan>
                        <tspan x="63.7987938" y="9.828125" letter-spacing="0.002">0</tspan>
                        <tspan x="69.3623172" y="9.828125">4</tspan>
                    </text>
                    <text id="-"></text>
                </g>
                <g id="Group-150" transform="translate(0.000000, 106.000000)" fill="#000000">
                    <polygon id="Fill-133" points="0 0 1 0 1 4 0 4"></polygon>
                    <polygon id="Fill-134" points="1 0 46 0 46 1 1 1"></polygon>
                    <polygon id="Fill-135" points="46 0 48 0 48 4 46 4"></polygon>
                    <polygon id="Fill-136" points="48 0 270 0 270 1 48 1"></polygon>
                    <polygon id="Fill-137" points="270 0 271 0 271 4 270 4"></polygon>
                    <polygon id="Fill-138" points="271 0 322 0 322 1 271 1"></polygon>
                    <polygon id="Fill-139" points="322 0 323 0 323 4 322 4"></polygon>
                    <polygon id="Fill-140" points="323 0 370 0 370 1 323 1"></polygon>
                    <polygon id="Fill-141" points="370 0 371 0 371 4 370 4"></polygon>
                    <polygon id="Fill-142" points="371 0 468 0 468 1 371 1"></polygon>
                    <polygon id="Fill-143" points="468 0 469 0 469 4 468 4"></polygon>
                    <polygon id="Fill-144" points="0 4 1 4 1 27 0 27"></polygon>
                    <polygon id="Fill-145" points="46 4 48 4 48 27 46 27"></polygon>
                    <polygon id="Fill-146" points="270 4 271 4 271 27 270 27"></polygon>
                    <polygon id="Fill-147" points="322 4 323 4 323 27 322 27"></polygon>
                    <polygon id="Fill-148" points="370 4 371 4 371 27 370 27"></polygon>
                    <polygon id="Fill-149" points="468 4 469 4 469 27 468 27"></polygon>
                </g>
                <g id="Group-152" transform="translate(7.000000, 137.000000)" font-family="ArialMT, Arial" font-size="10" font-weight="normal">
                    <text id="Model5" fill="#6F8A67">
                        <tspan x="0.151123" y="9.828125">M</tspan>
                        <tspan x="8.48120113" y="9.828125" letter-spacing="0.002">odel</tspan>
                        <tspan x="27.3954511" y="9.828125">5</tspan>
                    </text>
                    <text id="-"></text>
                </g>
                <g id="Group-154" transform="translate(78.000000, 137.000000)" font-family="ArialMT, Arial" font-size="10" font-weight="normal">
                    <text id="Treatment.Arm+Age+BMI+mu_cpep" letter-spacing="-0.002" fill="#6F8A67">
                        <tspan x="0.97095" y="9.828125">T</tspan>
                        <tspan x="6.70625469" y="9.828125">r</tspan>
                        <tspan x="10.0363328" y="9.828125" letter-spacing="0.002">ea</tspan>
                        <tspan x="21.1633797" y="9.828125">t</tspan>
                        <tspan x="23.9397" y="9.828125">m</tspan>
                        <tspan x="32.2697781" y="9.828125" letter-spacing="0.002">en</tspan>
                        <tspan x="43.396825" y="9.828125">t.</tspan>
                        <tspan x="48.9494656" y="9.828125">Arm+A</tspan>
                        <tspan x="79.7893094" y="9.828125" letter-spacing="0.002">ge</tspan>
                        <tspan x="90.9163562" y="9.828125">+BM</tspan>
                        <tspan x="111.7562" y="9.828125">I</tspan>
                        <tspan x="114.53252" y="9.828125">+m</tspan>
                        <tspan x="128.702442" y="9.828125" letter-spacing="0.002">u_</tspan>
                        <tspan x="139.829489" y="9.828125">c</tspan>
                        <tspan x="144.829489" y="9.828125" letter-spacing="0.002">pe</tspan>
                        <tspan x="155.956536" y="9.828125">p</tspan>
                    </text>
                    <text id="-"></text>
                </g>
                <g id="Group-156" transform="translate(287.000000, 137.000000)" font-family="ArialMT, Arial" font-size="10" font-weight="normal">
                    <text id="0.68" letter-spacing="0.0002" fill="#6F8A67">
                        <tspan x="0.1436" y="9.828125">0.68</tspan>
                    </text>
                    <text id="-"></text>
                </g>
                <g id="Group-158" transform="translate(331.000000, 137.000000)" font-family="ArialMT, Arial" font-size="10" font-weight="normal">
                    <text id="234.61" letter-spacing="0.0002" fill="#6F8A67">
                        <tspan x="0.8821" y="9.828125">234.61</tspan>
                    </text>
                    <text id="-"></text>
                </g>
                <g id="Group-160" transform="translate(379.000000, 137.000000)" font-family="ArialMT, Arial" font-size="10" font-weight="normal">
                    <text id="(vs-Model2)-0.009" fill="#6F8A67">
                        <tspan x="0.6555" y="9.828125">(vs</tspan>
                        <tspan x="13.9855781" y="9.828125" letter-spacing="-0.002"> </tspan>
                        <tspan x="16.7618984" y="9.828125">M</tspan>
                        <tspan x="25.0919766" y="9.828125" letter-spacing="0.002">odel2</tspan>
                        <tspan x="49.56975" y="9.828125">)</tspan>
                        <tspan x="52.8998281" y="9.828125" letter-spacing="-0.002"> </tspan>
                        <tspan x="55.6761484" y="9.828125" letter-spacing="0.002">0</tspan>
                        <tspan x="61.2396719" y="9.828125" letter-spacing="-0.002">.</tspan>
                        <tspan x="64.0159922" y="9.828125" letter-spacing="0.002">00</tspan>
                        <tspan x="75.1430391" y="9.828125">9</tspan>
                    </text>
                    <text id="-"></text>
                </g>
                <g id="Group-178" transform="translate(0.000000, 133.000000)" fill="#000000">
                    <polygon id="Fill-161" points="0 0 1 0 1 4 0 4"></polygon>
                    <polygon id="Fill-162" points="1 0 46 0 46 1 1 1"></polygon>
                    <polygon id="Fill-163" points="46 0 48 0 48 4 46 4"></polygon>
                    <polygon id="Fill-164" points="48 0 270 0 270 1 48 1"></polygon>
                    <polygon id="Fill-165" points="270 0 271 0 271 4 270 4"></polygon>
                    <polygon id="Fill-166" points="271 0 322 0 322 1 271 1"></polygon>
                    <polygon id="Fill-167" points="322 0 323 0 323 4 322 4"></polygon>
                    <polygon id="Fill-168" points="323 0 370 0 370 1 323 1"></polygon>
                    <polygon id="Fill-169" points="370 0 371 0 371 4 370 4"></polygon>
                    <polygon id="Fill-170" points="371 0 468 0 468 1 371 1"></polygon>
                    <polygon id="Fill-171" points="468 0 469 0 469 4 468 4"></polygon>
                    <polygon id="Fill-172" points="0 4 1 4 1 26 0 26"></polygon>
                    <polygon id="Fill-173" points="46 4 48 4 48 26 46 26"></polygon>
                    <polygon id="Fill-174" points="270 4 271 4 271 26 270 26"></polygon>
                    <polygon id="Fill-175" points="322 4 323 4 323 26 322 26"></polygon>
                    <polygon id="Fill-176" points="370 4 371 4 371 26 370 26"></polygon>
                    <polygon id="Fill-177" points="468 4 469 4 469 26 468 26"></polygon>
                </g>
                <g id="Group-180" transform="translate(7.000000, 164.000000)" font-family="ArialMT, Arial" font-size="10" font-weight="normal">
                    <text id="Model6" fill="#389769">
                        <tspan x="0.151123" y="9.828125">M</tspan>
                        <tspan x="8.48120113" y="9.828125" letter-spacing="0.002">odel</tspan>
                        <tspan x="27.3954511" y="9.828125">6</tspan>
                    </text>
                    <text id="-"></text>
                </g>
                <g id="Group-182" transform="translate(58.000000, 164.000000)" font-size="10">
                    <text id="Treatment.Arm+Age+BMI+mu_cpep+" font-family="ArialMT, Arial" font-weight="normal" letter-spacing="-0.002" fill="#389769">
                        <tspan x="0.54858" y="9.828125">T</tspan>
                        <tspan x="6.28388469" y="9.828125">r</tspan>
                        <tspan x="9.61396281" y="9.828125" letter-spacing="0.002">ea</tspan>
                        <tspan x="20.7410097" y="9.828125">t</tspan>
                        <tspan x="23.51733" y="9.828125">m</tspan>
                        <tspan x="31.8474081" y="9.828125" letter-spacing="0.002">en</tspan>
                        <tspan x="42.974455" y="9.828125">t.</tspan>
                        <tspan x="48.5270956" y="9.828125">Arm+A</tspan>
                        <tspan x="79.3669394" y="9.828125" letter-spacing="0.002">ge</tspan>
                        <tspan x="90.4939862" y="9.828125">+BM</tspan>
                        <tspan x="111.33383" y="9.828125">I</tspan>
                        <tspan x="114.11015" y="9.828125">+m</tspan>
                        <tspan x="128.280072" y="9.828125" letter-spacing="0.002">u_</tspan>
                        <tspan x="139.407119" y="9.828125">c</tspan>
                        <tspan x="144.407119" y="9.828125" letter-spacing="0.002">pep</tspan>
                        <tspan x="161.097689" y="9.828125">+</tspan>
                    </text>
                    <text id="Ef.IgG2" font-family="Arial-BoldMT, Arial" font-weight="bold" fill="#389769">
                        <tspan x="167.2966" y="9.828125">Ef</tspan>
                        <tspan x="177.2966" y="9.828125" letter-spacing="-0.002">.IgG</tspan>
                        <tspan x="196.731959" y="9.828125">2</tspan>
                    </text>
                    <text id="-" font-family="ArialMT, Arial" font-weight="normal"></text>
                </g>
                <g id="Group-184" transform="translate(287.000000, 164.000000)" font-family="ArialMT, Arial" font-size="10" font-weight="normal">
                    <text id="0.72" letter-spacing="0.0002" fill="#389769">
                        <tspan x="0.1436" y="9.828125">0.72</tspan>
                    </text>
                    <text id="-"></text>
                </g>
                <g id="Group-186" transform="translate(331.000000, 164.000000)" font-family="ArialMT, Arial" font-size="10" font-weight="normal">
                    <text id="230.84" letter-spacing="0.0002" fill="#389769">
                        <tspan x="0.8821" y="9.828125">230.84</tspan>
                    </text>
                    <text id="-"></text>
                </g>
                <g id="Group-188" transform="translate(379.000000, 164.000000)" font-family="ArialMT, Arial" font-size="10" font-weight="normal">
                    <text id="(vs-Model5)-0.009" fill="#389769">
                        <tspan x="0.6555" y="9.828125">(vs</tspan>
                        <tspan x="13.9855781" y="9.828125" letter-spacing="-0.002"> </tspan>
                        <tspan x="16.7618984" y="9.828125">M</tspan>
                        <tspan x="25.0919766" y="9.828125" letter-spacing="0.002">odel5</tspan>
                        <tspan x="49.56975" y="9.828125">)</tspan>
                        <tspan x="52.8998281" y="9.828125" letter-spacing="-0.002"> </tspan>
                        <tspan x="55.6761484" y="9.828125" letter-spacing="0.002">0</tspan>
                        <tspan x="61.2396719" y="9.828125" letter-spacing="-0.002">.</tspan>
                        <tspan x="64.0159922" y="9.828125" letter-spacing="0.002">00</tspan>
                        <tspan x="75.1430391" y="9.828125">9</tspan>
                    </text>
                    <text id="-"></text>
                </g>
                <g id="Group-206" transform="translate(0.000000, 159.000000)" fill="#000000">
                    <polygon id="Fill-189" points="0 0 1 0 1 4 0 4"></polygon>
                    <polygon id="Fill-190" points="1 0 46 0 46 1 1 1"></polygon>
                    <polygon id="Fill-191" points="46 0 48 0 48 4 46 4"></polygon>
                    <polygon id="Fill-192" points="48 0 270 0 270 1 48 1"></polygon>
                    <polygon id="Fill-193" points="270 0 271 0 271 4 270 4"></polygon>
                    <polygon id="Fill-194" points="271 0 322 0 322 1 271 1"></polygon>
                    <polygon id="Fill-195" points="322 0 323 0 323 4 322 4"></polygon>
                    <polygon id="Fill-196" points="323 0 370 0 370 1 323 1"></polygon>
                    <polygon id="Fill-197" points="370 0 371 0 371 4 370 4"></polygon>
                    <polygon id="Fill-198" points="371 0 468 0 468 1 371 1"></polygon>
                    <polygon id="Fill-199" points="468 0 469 0 469 4 468 4"></polygon>
                    <polygon id="Fill-200" points="0 4 1 4 1 27 0 27"></polygon>
                    <polygon id="Fill-201" points="46 4 48 4 48 27 46 27"></polygon>
                    <polygon id="Fill-202" points="270 4 271 4 271 27 270 27"></polygon>
                    <polygon id="Fill-203" points="322 4 323 4 323 27 322 27"></polygon>
                    <polygon id="Fill-204" points="370 4 371 4 371 27 370 27"></polygon>
                    <polygon id="Fill-205" points="468 4 469 4 469 27 468 27"></polygon>
                </g>
                <g id="Group-208" transform="translate(7.000000, 190.000000)" font-family="ArialMT, Arial" font-size="10" font-weight="normal">
                    <text id="Model7" fill="#245F4C">
                        <tspan x="0.151123" y="9.828125">M</tspan>
                        <tspan x="8.48120113" y="9.828125" letter-spacing="0.002">odel</tspan>
                        <tspan x="27.3954511" y="9.828125">7</tspan>
                    </text>
                    <text id="-"></text>
                </g>
                <g id="Group-210" transform="translate(58.000000, 190.000000)" font-size="10">
                    <text id="Treatment.Arm+Age+BMI+mu_cpep+" font-family="ArialMT, Arial" font-weight="normal" letter-spacing="-0.002" fill="#245F4C">
                        <tspan x="0.54858" y="9.828125">T</tspan>
                        <tspan x="6.28388469" y="9.828125">r</tspan>
                        <tspan x="9.61396281" y="9.828125" letter-spacing="0.002">ea</tspan>
                        <tspan x="20.7410097" y="9.828125">t</tspan>
                        <tspan x="23.51733" y="9.828125">m</tspan>
                        <tspan x="31.8474081" y="9.828125" letter-spacing="0.002">en</tspan>
                        <tspan x="42.974455" y="9.828125">t.</tspan>
                        <tspan x="48.5270956" y="9.828125">Arm+A</tspan>
                        <tspan x="79.3669394" y="9.828125" letter-spacing="0.002">ge</tspan>
                        <tspan x="90.4939862" y="9.828125">+BM</tspan>
                        <tspan x="111.33383" y="9.828125">I</tspan>
                        <tspan x="114.11015" y="9.828125">+m</tspan>
                        <tspan x="128.280072" y="9.828125" letter-spacing="0.002">u_</tspan>
                        <tspan x="139.407119" y="9.828125">c</tspan>
                        <tspan x="144.407119" y="9.828125" letter-spacing="0.002">pep</tspan>
                        <tspan x="161.097689" y="9.828125">+</tspan>
                    </text>
                    <text id="Bl.IgG2" font-family="Arial-BoldMT, Arial" font-weight="bold" letter-spacing="0.0002" fill="#245F4C">
                        <tspan x="167.2966" y="9.828125">Bl.IgG2</tspan>
                    </text>
                    <text id="-" font-family="ArialMT, Arial" font-weight="normal"></text>
                </g>
                <g id="Group-212" transform="translate(287.000000, 190.000000)" font-family="ArialMT, Arial" font-size="10" font-weight="normal">
                    <text id="0.71" letter-spacing="0.0002" fill="#245F4C">
                        <tspan x="0.1436" y="9.828125">0.71</tspan>
                    </text>
                    <text id="-"></text>
                </g>
                <g id="Group-214" transform="translate(331.000000, 190.000000)" font-family="ArialMT, Arial" font-size="10" font-weight="normal">
                    <text id="231.23" letter-spacing="0.0002" fill="#245F4C">
                        <tspan x="0.8821" y="9.828125">231.23</tspan>
                    </text>
                    <text id="-"></text>
                </g>
                <g id="Group-216" transform="translate(382.000000, 190.000000)" font-family="ArialMT, Arial" font-size="10" font-weight="normal">
                    <text id="(vs-Model5)-0.02" fill="#245F4C">
                        <tspan x="0.4363" y="9.828125">(vs</tspan>
                        <tspan x="13.7663781" y="9.828125" letter-spacing="-0.002"> </tspan>
                        <tspan x="16.5426984" y="9.828125">M</tspan>
                        <tspan x="24.8727766" y="9.828125" letter-spacing="0.002">odel5</tspan>
                        <tspan x="49.35055" y="9.828125">)</tspan>
                        <tspan x="52.6806281" y="9.828125" letter-spacing="-0.002"> </tspan>
                        <tspan x="55.4569484" y="9.828125" letter-spacing="0.002">0</tspan>
                        <tspan x="61.0204719" y="9.828125" letter-spacing="-0.002">.</tspan>
                        <tspan x="63.7967922" y="9.828125" letter-spacing="0.002">0</tspan>
                        <tspan x="69.3603156" y="9.828125">2</tspan>
                    </text>
                    <text id="-"></text>
                </g>
                <g id="Group-247" transform="translate(0.000000, 186.000000)">
                    <polygon id="Fill-217" fill="#000000" points="0 0 1 0 1 4 0 4"></polygon>
                    <polygon id="Fill-218" fill="#000000" points="1 0 46 0 46 1 1 1"></polygon>
                    <polygon id="Fill-219" fill="#000000" points="46 0 48 0 48 4 46 4"></polygon>
                    <polygon id="Fill-220" fill="#000000" points="48 0 270 0 270 1 48 1"></polygon>
                    <polygon id="Fill-221" fill="#000000" points="270 0 271 0 271 4 270 4"></polygon>
                    <polygon id="Fill-222" fill="#000000" points="271 0 322 0 322 1 271 1"></polygon>
                    <polygon id="Fill-223" fill="#000000" points="322 0 323 0 323 4 322 4"></polygon>
                    <polygon id="Fill-224" fill="#000000" points="323 0 370 0 370 1 323 1"></polygon>
                    <polygon id="Fill-225" fill="#000000" points="370 0 371 0 371 4 370 4"></polygon>
                    <polygon id="Fill-226" fill="#000000" points="371 0 468 0 468 1 371 1"></polygon>
                    <polygon id="Fill-227" fill="#000000" points="468 0 469 0 469 4 468 4"></polygon>
                    <polygon id="Fill-228" fill="#000000" points="0 4 1 4 1 26 0 26"></polygon>
                    <polygon id="Fill-229" fill="#000000" points="0 26 1 26 1 27 0 27"></polygon>
                    <polygon id="Fill-230" fill="#000000" points="0 26 1 26 1 27 0 27"></polygon>
                    <polygon id="Fill-231" fill="#000000" points="1 26 46 26 46 27 1 27"></polygon>
                    <polygon id="Fill-232" fill="#000000" points="46 4 48 4 48 26 46 26"></polygon>
                    <polygon id="Fill-233" fill="#000000" points="46 26 47 26 47 27 46 27"></polygon>
                    <polygon id="Fill-234" fill="#000000" points="47 26 270 26 270 27 47 27"></polygon>
                    <polygon id="Fill-235" fill="#000000" points="270 4 271 4 271 26 270 26"></polygon>
                    <polygon id="Fill-236" fill="#000000" points="270 26 271 26 271 27 270 27"></polygon>
                    <polygon id="Fill-237" fill="#000000" points="271 26 322 26 322 27 271 27"></polygon>
                    <polygon id="Fill-238" fill="#000000" points="322 4 323 4 323 26 322 26"></polygon>
                    <polygon id="Fill-239" fill="#000000" points="322 26 323 26 323 27 322 27"></polygon>
                    <polygon id="Fill-240" fill="#000000" points="323 26 370 26 370 27 323 27"></polygon>
                    <polygon id="Fill-241" fill="#000000" points="370 4 371 4 371 26 370 26"></polygon>
                    <polygon id="Fill-242" fill="#000000" points="370 26 371 26 371 27 370 27"></polygon>
                    <polygon id="Fill-243" fill="#000000" points="371 26 468 26 468 27 371 27"></polygon>
                    <polygon id="Fill-244" fill="#000000" points="468 4 469 4 469 26 468 26"></polygon>
                    <polygon id="Fill-245" fill="#000000" points="468 26 469 26 469 27 468 27"></polygon>
                    <polygon id="Fill-246" fill="#000000" points="468 26 469 26 469 27 468 27"></polygon>
                    <text id="-" font-family="TimesNewRomanPSMT, Times New Roman" font-size="10" font-weight="normal"></text>
                </g>
            </g>
        </g>
    </g>
</svg>